<?xml version="1.0" encoding="UTF-8" standalone="no"?>
<!-- Created with Inkscape (http://www.inkscape.org/) -->

<svg
   xmlns:dc="http://purl.org/dc/elements/1.1/"
   xmlns:cc="http://creativecommons.org/ns#"
   xmlns:rdf="http://www.w3.org/1999/02/22-rdf-syntax-ns#"
   xmlns:svg="http://www.w3.org/2000/svg"
   xmlns="http://www.w3.org/2000/svg"
   xmlns:xlink="http://www.w3.org/1999/xlink"
   xmlns:sodipodi="http://sodipodi.sourceforge.net/DTD/sodipodi-0.dtd"
   xmlns:inkscape="http://www.inkscape.org/namespaces/inkscape"
   width="26.245941mm"
   height="7.2525997mm"
   viewBox="0 0 92.997429 25.698188"
   id="svg6797"
   version="1.1"
   inkscape:version="0.91 r"
   sodipodi:docname="final-text.svg">
  <defs
     id="defs6799">
    <linearGradient
       inkscape:collect="always"
       id="linearGradient7534">
      <stop
         style="stop-color:#000000;stop-opacity:0.74358976"
         offset="0"
         id="stop7536" />
      <stop
         style="stop-color:#000000;stop-opacity:0;"
         offset="1"
         id="stop7538" />
    </linearGradient>
    <linearGradient
       inkscape:collect="always"
       xlink:href="#linearGradient7534"
       id="linearGradient7542"
       gradientUnits="userSpaceOnUse"
       x1="1890.4316"
       y1="1016.4858"
       x2="1890.4316"
       y2="930.59686"
       gradientTransform="matrix(1,0,0,-0.18803134,115.99871,1051.0451)" />
  </defs>
  <sodipodi:namedview
     id="base"
     pagecolor="#ffffff"
     bordercolor="#666666"
     borderopacity="1.0"
     inkscape:pageopacity="0.0"
     inkscape:pageshadow="2"
     inkscape:zoom="3.8614659"
     inkscape:cx="41.134527"
     inkscape:cy="6.1608683"
     inkscape:document-units="px"
     inkscape:current-layer="layer1"
     showgrid="false"
     inkscape:window-width="1600"
     inkscape:window-height="841"
     inkscape:window-x="0"
     inkscape:window-y="28"
     inkscape:window-maximized="1"
     fit-margin-top="0"
     fit-margin-left="0"
     fit-margin-right="0"
     fit-margin-bottom="0" />
  <metadata
     id="metadata6802">
    <rdf:RDF>
      <cc:Work
         rdf:about="">
        <dc:format>image/svg+xml</dc:format>
        <dc:type
           rdf:resource="http://purl.org/dc/dcmitype/StillImage" />
        <dc:title />
      </cc:Work>
    </rdf:RDF>
  </metadata>
  <g
     inkscape:label="Layer 1"
     inkscape:groupmode="layer"
     id="layer1"
     transform="translate(-325.54853,-516.08036)">
    <g
       transform="matrix(1.0253854,0,0,0.97524307,-1681.1908,-312.29226)"
       id="logo">
      <g
         id="text"
         style="fill:#000000;fill-opacity:1;stroke:none;stroke-width:1px;stroke-linecap:butt;stroke-linejoin:miter;stroke-opacity:1">
        <path
           inkscape:connector-curvature="0"
           d="m 1975.8273,866.80939 c 0.1463,2.36986 0.029,2.39911 -1.8725,2.48689 -0.1755,0.17554 -0.1755,0.49737 0,0.67292 1.3751,-0.0293 2.3699,-0.14629 3.1306,-0.14629 0.8485,0 2.3698,0.11703 3.3353,0.14629 0.1756,-0.17555 0.1756,-0.49738 0,-0.67292 -1.9895,-0.0878 -2.0772,-0.20481 -2.2528,-2.63318 l -0.9655,-12.69775 c -0.117,-1.57991 0.029,-2.36986 2.0188,-2.48689 0.1755,-0.17555 0.1755,-0.49738 0,-0.67292 l -3.862,0.14628 -6.2026,14.83356 c -0.1755,0.4096 -0.1755,0.38034 -0.2926,0.38034 -0.117,0 -0.1463,-0.0878 -0.2633,-0.35109 l -5.9978,-14.86281 -3.9205,-0.14628 c -0.1755,0.17554 -0.1755,0.49737 0,0.67292 2.0188,0.11703 2.2236,0.58515 1.9895,2.7502 l -1.2873,12.43444 c -0.1755,1.75545 -0.5266,2.48689 -2.1943,2.63318 -0.1756,0.17554 -0.1756,0.49737 0,0.67292 0.8777,-0.0293 1.8725,-0.14629 2.5746,-0.14629 0.7022,0 1.6385,0.11703 2.5162,0.14629 0.1755,-0.17555 0.1755,-0.49738 0,-0.67292 -1.931,-0.14629 -2.0773,-1.02402 -1.931,-2.69169 l 1.1118,-12.11261 0.059,0 6.0563,15.18464 c 0.088,0.23406 0.2633,0.32184 0.4389,0.32184 0.1755,0 0.2925,-0.0878 0.4096,-0.32184 l 6.5829,-15.47721 0.059,0 0.7607,12.60998 z"
           id="path5639" />
        <path
           inkscape:connector-curvature="0"
           d="m 1989.4106,863.62032 -0.1463,3.42313 c -0.029,0.35109 -0.1463,0.52663 -0.3804,0.70218 -0.7314,0.58515 -1.7262,1.49213 -2.5161,1.49213 -1.4044,0 -2.1651,-1.22881 -2.1651,-2.10654 0,-1.08253 0.7022,-2.39911 2.8088,-2.92575 l 2.3991,-0.58515 z m -0.1463,4.85675 c 0.1755,0.58515 0.6144,1.63842 2.1065,1.63842 1.3751,0 2.3699,-1.11179 2.3699,-1.25808 0,-0.2048 -0.2926,-0.38034 -0.4096,-0.38034 -0.1756,0 -0.2633,0.46812 -0.8485,0.46812 -1.0825,0 -1.2288,-0.87773 -1.1703,-2.48689 l 0.1463,-4.15457 c 0.117,-3.89124 -1.931,-4.73971 -3.979,-4.73971 -2.2821,0 -4.7397,1.46287 -4.7397,2.95501 0,0.67292 0.4681,1.14104 1.1117,1.14104 0.8193,0 1.2874,-0.73144 1.2874,-1.08253 0,-0.2048 -0.029,-0.38035 -0.088,-0.49738 -0.029,-0.0878 -0.059,-0.26331 -0.059,-0.55589 0,-0.87772 1.1995,-1.31659 2.2528,-1.31659 0.9363,0 2.1943,0.7607 2.1943,3.92051 0,0.2048 -0.059,0.58515 -0.1463,0.61441 l -2.6331,0.58515 c -2.721,0.6144 -4.5935,2.01876 -4.5935,3.9205 0,2.1358 1.5214,2.86724 3.4817,2.86724 1.2873,0 1.8725,-0.26332 3.1013,-1.19956 l 0.5559,-0.43886 0.058,0 z"
           id="path5641" />
        <path
           inkscape:connector-curvature="0"
           d="m 1995.4705,857.85659 c -0.3803,0 -0.4974,0.17555 -0.4974,0.40961 l 0,0.26332 c 0,0.14628 0.029,0.17554 0.1463,0.17554 l 1.6385,0 c 0,2.77946 -0.1463,6.87551 -0.1463,8.63096 0,1.98951 0.6729,2.77947 1.9602,2.77947 1.2873,0 2.6917,-0.61441 3.7742,-1.84323 -0.058,-0.29257 -0.117,-0.35109 -0.2925,-0.4096 -0.7315,0.55589 -1.7555,0.99475 -2.4869,0.99475 -0.7607,0 -0.8778,-0.84846 -0.9363,-2.57466 -0.058,-1.46287 0.029,-4.97377 0.1463,-7.57769 l 2.8965,0 c 0.2926,0 0.6729,-0.0878 0.6729,-0.35109 l 0,-0.32183 c 0,-0.11703 -0.058,-0.17555 -0.2048,-0.17555 l -3.3646,0 0.029,-1.66767 c 0.029,-1.81397 0.117,-2.92575 0.117,-2.92575 0,-0.17555 -0.088,-0.26332 -0.2048,-0.26332 -0.2048,0 -0.6437,0.32183 -1.0825,0.49738 -0.4681,0.2048 -0.9655,0.23406 -0.9655,0.52663 0,0.32183 0.088,0.73144 0.088,3.83273 l -1.2874,0 z"
           id="path5643" />
        <path
           inkscape:connector-curvature="0"
           d="m 2007.489,861.83561 c 0,-0.58515 0.234,-0.93624 0.4681,-1.1703 1.0532,-1.05327 2.5161,-2.22357 3.6279,-2.22357 0.5559,0 1.1703,0.35109 1.4921,0.99476 0.2926,0.55589 0.3511,1.90174 0.4096,2.7502 0.059,1.46288 0.059,3.13056 0,4.59343 -0.117,2.28209 -0.2633,2.36986 -1.7261,2.51615 -0.1463,0.17554 -0.1463,0.49737 0,0.67292 1.1703,-0.0293 1.6676,-0.14629 2.7794,-0.14629 1.1411,0 1.6677,0.11703 2.8672,0.14629 0.1463,-0.17555 0.1463,-0.49738 0,-0.67292 -1.5506,-0.14629 -1.7847,-0.23406 -1.8724,-2.51615 -0.059,-1.46287 -0.059,-3.04278 0,-4.50565 0.058,-1.52139 -0.029,-2.8965 -0.673,-3.74496 -0.4681,-0.61441 -1.3458,-0.9655 -2.3113,-0.9655 -1.3751,0 -3.1013,0.38035 -4.7982,2.28208 -0.088,0.11703 -0.2926,0.38035 -0.2926,0 0,0 0.029,-6.08556 0.088,-7.54843 0.058,-1.81397 0.058,-1.57991 0.117,-2.63318 0,-0.2048 -0.088,-0.26331 -0.3511,-0.26331 -0.7022,0.29257 -2.6332,0.64366 -3.7449,0.73143 -0.059,0.23406 0,0.38035 0.1755,0.5559 1.4629,0.0878 1.6969,-0.0585 1.7847,2.28208 0.059,1.75545 0.059,12.05409 0,13.80954 -0.088,2.31134 -0.3511,2.39912 -1.9602,2.51615 -0.1756,0.17554 -0.1756,0.49737 0,0.67292 1.141,-0.0293 1.7847,-0.14629 2.9842,-0.14629 1.0825,0 1.4921,0.11703 2.6624,0.14629 0.1756,-0.17555 0.1756,-0.49738 0,-0.67292 -1.4043,-0.11703 -1.5799,-0.20481 -1.6676,-2.51615 -0.059,-1.46287 -0.059,-4.94452 -0.059,-4.94452 z"
           id="path5645" />
        <path
           inkscape:connector-curvature="0"
           d="m 2020.2077,852.29767 c 0,0.76069 0.7022,1.52139 1.4044,1.52139 0.8192,0 1.5214,-0.7607 1.5214,-1.40436 0,-0.70218 -0.6144,-1.52139 -1.4044,-1.52139 -0.7022,0 -1.5214,0.70218 -1.5214,1.40436 z m 2.8088,14.33617 c -0.059,-0.87772 -0.059,-2.3406 -0.059,-3.21832 0,-0.87773 0,-1.81397 0.059,-2.69169 0.058,-1.43362 0.1755,-3.04278 0.1755,-3.04278 0,-0.11703 -0.1463,-0.2048 -0.3803,-0.2048 -0.8485,0.32183 -1.8725,0.58515 -3.8913,0.84846 -0.059,0.17555 0,0.35109 0.058,0.52664 1.5799,0.17554 1.814,0.29257 1.9018,1.98951 0.029,0.87772 0.058,1.66768 0.058,2.5454 0,0.87773 -0.058,2.36986 -0.058,3.24758 -0.088,2.42838 -0.3219,2.51615 -2.1066,2.66244 -0.1755,0.17554 -0.1755,0.49737 0,0.67292 0.7607,-0.0585 2.3114,-0.14629 3.1891,-0.14629 0.907,0 2.2821,0.0878 3.1598,0.14629 0.1755,-0.17555 0.1755,-0.49738 0,-0.67292 -1.7847,-0.11703 -2.0188,-0.20481 -2.1065,-2.66244 z"
           id="path5647" />
        <path
           inkscape:connector-curvature="0"
           d="m 2037.077,867.27751 c -0.1171,-0.26332 -0.1756,-0.26332 -0.4389,-0.29258 -0.9362,1.22882 -2.4284,2.04803 -3.6279,2.04803 -2.1943,0 -4.0668,-2.10654 -4.0668,-5.61744 0,-3.07204 1.6677,-5.17858 3.5109,-5.17858 1.6384,0 2.0773,1.25807 2.1943,2.22357 0.088,0.78995 0.4681,0.99476 1.0533,0.99476 0.5851,0 1.3458,-0.35109 1.3458,-1.22882 0,-1.52139 -1.7554,-2.66243 -4.4471,-2.66243 -2.7502,0 -5.8808,2.51614 -5.8808,6.46591 0,3.59867 2.1651,6.08556 5.676,6.08556 1.6677,0 3.2768,-0.5559 4.6812,-2.83798 z"
           id="path5649" />
        <path
           inkscape:connector-curvature="0"
           d="m 2039.3275,866.13647 c 0.117,1.3751 0.1756,2.51614 0.1756,3.68644 0.2925,-0.0585 0.5559,-0.0878 0.7021,-0.0878 0.2048,0 0.3511,0 0.5559,0.0585 0.7607,0.20481 1.5214,0.32184 2.5454,0.32184 1.5507,0 4.4472,-0.78996 4.4472,-3.54016 0,-1.90174 -1.3751,-2.83798 -3.2769,-3.56942 -1.6676,-0.64366 -2.8965,-1.19955 -2.8965,-2.72094 0,-1.14105 0.9363,-2.07729 2.0773,-2.07729 1.024,0 2.5162,0.38035 2.8673,2.75021 0.1755,0.14629 0.4388,0.14629 0.6144,-0.0293 0.088,-0.99475 0.117,-1.90174 0.1463,-2.80872 -0.8778,-0.14629 -2.1651,-0.55589 -3.628,-0.55589 -2.2235,0 -3.9497,1.19956 -3.9497,3.13055 0,2.04803 1.0825,2.86724 3.072,3.7157 2.2821,0.99476 2.9258,1.60917 2.9258,2.80872 0,1.37511 -1.4337,2.25283 -2.4577,2.25283 -1.0825,0 -1.8432,-0.46812 -2.1358,-0.76069 -0.6729,-0.64367 -1.0532,-1.90174 -1.2288,-2.60392 -0.1755,-0.17555 -0.3803,-0.14629 -0.5559,0.0293 z"
           id="path5651" />
      </g>
      <g
         id="shadow"
         style="fill:url(#linearGradient7542);fill-opacity:1;stroke:none;stroke-width:1px;stroke-linecap:butt;stroke-linejoin:miter;stroke-opacity:1">
        <path
           inkscape:connector-curvature="0"
           d="m 1975.8273,870.8627 c 0.1463,-0.66557 0.029,-0.67378 -1.8725,-0.69844 -0.1755,-0.0493 -0.1755,-0.13968 0,-0.18898 1.3751,0.008 2.3699,0.0411 3.1306,0.0411 0.8485,0 2.3698,-0.0329 3.3353,-0.0411 0.1756,0.0493 0.1756,0.13968 0,0.18898 -1.9895,0.0247 -2.0772,0.0575 -2.2528,0.73952 l -0.9655,3.56612 c -0.117,0.44371 0.029,0.66557 2.0188,0.69843 0.1755,0.0493 0.1755,0.13969 0,0.18899 l -3.862,-0.0411 -6.2026,-4.16595 c -0.1755,-0.11504 -0.1755,-0.10682 -0.2926,-0.10682 -0.117,0 -0.1463,0.0247 -0.2633,0.0986 l -5.9978,4.17417 -3.9205,0.0411 c -0.1755,-0.0493 -0.1755,-0.13968 0,-0.18899 2.0188,-0.0329 2.2236,-0.16433 1.9895,-0.77238 l -1.2873,-3.49217 c -0.1755,-0.49301 -0.5266,-0.69843 -2.1943,-0.73952 -0.1756,-0.0493 -0.1756,-0.13968 0,-0.18898 0.8777,0.008 1.8725,0.0411 2.5746,0.0411 0.7022,0 1.6385,-0.0329 2.5162,-0.0411 0.1755,0.0493 0.1755,0.13968 0,0.18898 -1.931,0.0411 -2.0773,0.2876 -1.931,0.75596 l 1.1118,3.40178 0.059,0 6.0563,-4.26455 c 0.088,-0.0657 0.2633,-0.0904 0.4389,-0.0904 0.1755,0 0.2925,0.0247 0.4096,0.0904 l 6.5829,4.34671 0.059,0 0.7607,-3.54146 z"
           id="path5639-6" />
        <path
           inkscape:connector-curvature="0"
           d="m 1989.4106,871.9396 -0.1463,-0.96137 c -0.029,-0.0986 -0.1463,-0.1479 -0.3804,-0.1972 -0.7314,-0.16434 -1.7262,-0.41906 -2.5161,-0.41906 -1.4044,0 -2.1651,0.3451 -2.1651,0.59161 0,0.30402 0.7022,0.67378 2.8088,0.82169 l 2.3991,0.16433 z m -0.1463,-1.364 c 0.1755,-0.16433 0.6144,-0.46014 2.1065,-0.46014 1.3751,0 2.3699,0.31224 2.3699,0.35333 0,0.0575 -0.2926,0.10681 -0.4096,0.10681 -0.1756,0 -0.2633,-0.13147 -0.8485,-0.13147 -1.0825,0 -1.2288,0.24651 -1.1703,0.69844 l 0.1463,1.16679 c 0.117,1.09284 -1.931,1.33113 -3.979,1.33113 -2.2821,0 -4.7397,-0.41084 -4.7397,-0.8299 0,-0.18899 0.4681,-0.32046 1.1117,-0.32046 0.8193,0 1.2874,0.20542 1.2874,0.30403 0,0.0575 -0.029,0.10682 -0.088,0.13968 -0.029,0.0247 -0.059,0.0739 -0.059,0.15612 0,0.24651 1.1995,0.36976 2.2528,0.36976 0.9363,0 2.1943,-0.21364 2.1943,-1.10106 0,-0.0575 -0.059,-0.16433 -0.1463,-0.17255 l -2.6331,-0.16434 c -2.721,-0.17255 -4.5935,-0.56696 -4.5935,-1.10106 0,-0.59983 1.5214,-0.80525 3.4817,-0.80525 1.2873,0 1.8725,0.0739 3.1013,0.33689 l 0.5559,0.12325 0.058,0 z"
           id="path5641-7" />
        <path
           inkscape:connector-curvature="0"
           d="m 1995.4705,873.55833 c -0.3803,0 -0.4974,-0.0493 -0.4974,-0.11504 l 0,-0.074 c 0,-0.0411 0.029,-0.0493 0.1463,-0.0493 l 1.6385,0 c 0,-0.7806 -0.1463,-1.93097 -0.1463,-2.42398 0,-0.55874 0.6729,-0.7806 1.9602,-0.7806 1.2873,0 2.6917,0.17255 3.7742,0.51766 -0.058,0.0822 -0.117,0.0986 -0.2925,0.11504 -0.7315,-0.15612 -1.7555,-0.27937 -2.4869,-0.27937 -0.7607,0 -0.8778,0.23828 -0.9363,0.72308 -0.058,0.41084 0.029,1.39687 0.1463,2.12817 l 2.8965,0 c 0.2926,0 0.6729,0.0247 0.6729,0.0986 l 0,0.0904 c 0,0.0329 -0.058,0.0493 -0.2048,0.0493 l -3.3646,0 0.029,0.46835 c 0.029,0.50945 0.117,0.82169 0.117,0.82169 0,0.0493 -0.088,0.0739 -0.2048,0.0739 -0.2048,0 -0.6437,-0.0904 -1.0825,-0.13968 -0.4681,-0.0575 -0.9655,-0.0657 -0.9655,-0.14791 0,-0.0904 0.088,-0.20542 0.088,-1.0764 l -1.2874,0 z"
           id="path5643-5" />
        <path
           inkscape:connector-curvature="0"
           d="m 2007.489,872.25957 c 0,0.16433 0.234,0.26294 0.4681,0.32867 1.0532,0.29581 2.5161,0.62448 3.6279,0.62448 0.5559,0 1.1703,-0.0986 1.4921,-0.27937 0.2926,-0.15612 0.3511,-0.5341 0.4096,-0.77239 0.059,-0.41084 0.059,-0.8792 0,-1.29004 -0.117,-0.64092 -0.2633,-0.66557 -1.7261,-0.70666 -0.1463,-0.0493 -0.1463,-0.13968 0,-0.18898 1.1703,0.008 1.6676,0.0411 2.7794,0.0411 1.1411,0 1.6677,-0.0329 2.8672,-0.0411 0.1463,0.0493 0.1463,0.13968 0,0.18898 -1.5506,0.0411 -1.7847,0.0657 -1.8724,0.70666 -0.059,0.41084 -0.059,0.85455 0,1.26539 0.058,0.42728 -0.029,0.81347 -0.673,1.05176 -0.4681,0.17255 -1.3458,0.27116 -2.3113,0.27116 -1.3751,0 -3.1013,-0.10682 -4.7982,-0.64092 -0.088,-0.0329 -0.2926,-0.10682 -0.2926,0 0,0 0.029,1.70911 0.088,2.11995 0.058,0.50945 0.058,0.44371 0.117,0.73952 0,0.0575 -0.088,0.0739 -0.3511,0.0739 -0.7022,-0.0822 -2.6332,-0.18077 -3.7449,-0.20542 -0.059,-0.0657 0,-0.10682 0.1755,-0.15612 1.4629,-0.0247 1.6969,0.0164 1.7847,-0.64091 0.059,-0.49302 0.059,-3.38535 0,-3.87836 -0.088,-0.64913 -0.3511,-0.67379 -1.9602,-0.70666 -0.1756,-0.0493 -0.1756,-0.13968 0,-0.18898 1.141,0.008 1.7847,0.0411 2.9842,0.0411 1.0825,0 1.4921,-0.0329 2.6624,-0.0411 0.1756,0.0493 0.1756,0.13968 0,0.18898 -1.4043,0.0329 -1.5799,0.0575 -1.6676,0.70666 -0.059,0.41084 -0.059,1.38865 -0.059,1.38865 z"
           id="path5645-3" />
        <path
           inkscape:connector-curvature="0"
           d="m 2020.2077,874.93826 c 0,-0.21364 0.7022,-0.42727 1.4044,-0.42727 0.8192,0 1.5214,0.21363 1.5214,0.3944 0,0.19721 -0.6144,0.42728 -1.4044,0.42728 -0.7022,0 -1.5214,-0.1972 -1.5214,-0.39441 z m 2.8088,-4.02626 c -0.059,0.24651 -0.059,0.65735 -0.059,0.90385 0,0.24651 0,0.50945 0.059,0.75596 0.058,0.40262 0.1755,0.85455 0.1755,0.85455 0,0.0329 -0.1463,0.0575 -0.3803,0.0575 -0.8485,-0.0904 -1.8725,-0.16434 -3.8913,-0.23829 -0.059,-0.0493 0,-0.0986 0.058,-0.1479 1.5799,-0.0493 1.814,-0.0822 1.9018,-0.55875 0.029,-0.24651 0.058,-0.46836 0.058,-0.71487 0,-0.24651 -0.058,-0.66556 -0.058,-0.91207 -0.088,-0.682 -0.3219,-0.70665 -2.1066,-0.74774 -0.1755,-0.0493 -0.1755,-0.13968 0,-0.18898 0.7607,0.0164 2.3114,0.0411 3.1891,0.0411 0.907,0 2.2821,-0.0247 3.1598,-0.0411 0.1755,0.0493 0.1755,0.13968 0,0.18898 -1.7847,0.0329 -2.0188,0.0575 -2.1065,0.74774 z"
           id="path5647-5" />
        <path
           inkscape:connector-curvature="0"
           d="m 2037.077,870.9125 c -0.1171,0.0739 -0.1756,0.0739 -0.4389,0.0822 -0.9362,-0.34511 -2.4284,-0.57519 -3.6279,-0.57519 -2.1943,0 -4.0668,0.59162 -4.0668,1.57764 0,0.86277 1.6677,1.45439 3.5109,1.45439 1.6384,0 2.0773,-0.35333 2.1943,-0.62448 0.088,-0.22186 0.4681,-0.27938 1.0533,-0.27938 0.5851,0 1.3458,0.0986 1.3458,0.34511 0,0.42728 -1.7554,0.74773 -4.4471,0.74773 -2.7502,0 -5.8808,-0.70665 -5.8808,-1.81592 0,-1.01068 2.1651,-1.70911 5.676,-1.70911 1.6677,0 3.2768,0.15612 4.6812,0.79704 z"
           id="path5649-6" />
        <path
           inkscape:connector-curvature="0"
           d="m 2039.3275,871.23295 c 0.117,-0.38619 0.1756,-0.70665 0.1756,-1.03532 0.2925,0.0164 0.5559,0.0247 0.7021,0.0247 0.2048,0 0.3511,0 0.5559,-0.0164 0.7607,-0.0575 1.5214,-0.0904 2.5454,-0.0904 1.5507,0 4.4472,0.22185 4.4472,0.99424 0,0.53409 -1.3751,0.79703 -3.2769,1.00246 -1.6676,0.18077 -2.8965,0.33688 -2.8965,0.76416 0,0.32046 0.9363,0.5834 2.0773,0.5834 1.024,0 2.5162,-0.10682 2.8673,-0.77239 0.1755,-0.0411 0.4388,-0.0411 0.6144,0.008 0.088,0.27937 0.117,0.5341 0.1463,0.78882 -0.8778,0.0411 -2.1651,0.15612 -3.628,0.15612 -2.2235,0 -3.9497,-0.33689 -3.9497,-0.8792 0,-0.57519 1.0825,-0.80526 3.072,-1.04354 2.2821,-0.27938 2.9258,-0.45193 2.9258,-0.78882 0,-0.3862 -1.4337,-0.6327 -2.4577,-0.6327 -1.0825,0 -1.8432,0.13147 -2.1358,0.21363 -0.6729,0.18078 -1.0532,0.5341 -1.2288,0.73131 -0.1755,0.0493 -0.3803,0.0411 -0.5559,-0.008 z"
           id="path5651-2" />
      </g>
    </g>
  </g>
</svg>
