<?xml version="1.0" encoding="UTF-8" standalone="no"?>
<!-- Created with Inkscape (http://www.inkscape.org/) -->

<svg
   xmlns:dc="http://purl.org/dc/elements/1.1/"
   xmlns:cc="http://creativecommons.org/ns#"
   xmlns:rdf="http://www.w3.org/1999/02/22-rdf-syntax-ns#"
   xmlns:svg="http://www.w3.org/2000/svg"
   xmlns="http://www.w3.org/2000/svg"
   xmlns:sodipodi="http://sodipodi.sourceforge.net/DTD/sodipodi-0.dtd"
   xmlns:inkscape="http://www.inkscape.org/namespaces/inkscape"
   width="26.245941mm"
   height="7.2525997mm"
   viewBox="0 0 92.997429 25.698188"
   id="svg6797"
   version="1.1"
   inkscape:version="0.91 r13725"
   sodipodi:docname="logo-text.svg">
  <defs
     id="defs6799" />
  <sodipodi:namedview
     id="base"
     pagecolor="#ffffff"
     bordercolor="#666666"
     borderopacity="1.0"
     inkscape:pageopacity="0.0"
     inkscape:pageshadow="2"
     inkscape:zoom="10.921875"
     inkscape:cx="41.703937"
     inkscape:cy="12.538773"
     inkscape:document-units="px"
     inkscape:current-layer="layer1"
     showgrid="false"
     inkscape:window-width="2560"
     inkscape:window-height="1373"
     inkscape:window-x="0"
     inkscape:window-y="0"
     inkscape:window-maximized="1"
     fit-margin-top="0"
     fit-margin-left="0"
     fit-margin-right="0"
     fit-margin-bottom="0" />
  <metadata
     id="metadata6802">
    <rdf:RDF>
      <cc:Work
         rdf:about="">
        <dc:format>image/svg+xml</dc:format>
        <dc:type
           rdf:resource="http://purl.org/dc/dcmitype/StillImage" />
        <dc:title></dc:title>
      </cc:Work>
    </rdf:RDF>
  </metadata>
  <g
     inkscape:label="Layer 1"
     inkscape:groupmode="layer"
     id="layer1"
     transform="translate(-325.54853,-516.08036)">
    <g
       transform="matrix(1.0253854,0,0,0.97524307,-1681.1908,-312.29226)"
       id="logo">
      <g
         id="text"
         style="fill:#000000;fill-opacity:1;stroke:none;stroke-width:1px;stroke-linecap:butt;stroke-linejoin:miter;stroke-opacity:1">
        <path
           inkscape:connector-curvature="0"
           d="m 1975.8273,866.80939 c 0.1463,2.36986 0.029,2.39911 -1.8725,2.48689 -0.1755,0.17554 -0.1755,0.49737 0,0.67292 1.3751,-0.0293 2.3699,-0.14629 3.1306,-0.14629 0.8485,0 2.3698,0.11703 3.3353,0.14629 0.1756,-0.17555 0.1756,-0.49738 0,-0.67292 -1.9895,-0.0878 -2.0772,-0.20481 -2.2528,-2.63318 l -0.9655,-12.69775 c -0.117,-1.57991 0.029,-2.36986 2.0188,-2.48689 0.1755,-0.17555 0.1755,-0.49738 0,-0.67292 l -3.862,0.14628 -6.2026,14.83356 c -0.1755,0.4096 -0.1755,0.38034 -0.2926,0.38034 -0.117,0 -0.1463,-0.0878 -0.2633,-0.35109 l -5.9978,-14.86281 -3.9205,-0.14628 c -0.1755,0.17554 -0.1755,0.49737 0,0.67292 2.0188,0.11703 2.2236,0.58515 1.9895,2.7502 l -1.2873,12.43444 c -0.1755,1.75545 -0.5266,2.48689 -2.1943,2.63318 -0.1756,0.17554 -0.1756,0.49737 0,0.67292 0.8777,-0.0293 1.8725,-0.14629 2.5746,-0.14629 0.7022,0 1.6385,0.11703 2.5162,0.14629 0.1755,-0.17555 0.1755,-0.49738 0,-0.67292 -1.931,-0.14629 -2.0773,-1.02402 -1.931,-2.69169 l 1.1118,-12.11261 0.059,0 6.0563,15.18464 c 0.088,0.23406 0.2633,0.32184 0.4389,0.32184 0.1755,0 0.2925,-0.0878 0.4096,-0.32184 l 6.5829,-15.47721 0.059,0 0.7607,12.60998 z"
           id="path5639" />
        <path
           inkscape:connector-curvature="0"
           d="m 1989.4106,863.62032 -0.1463,3.42313 c -0.029,0.35109 -0.1463,0.52663 -0.3804,0.70218 -0.7314,0.58515 -1.7262,1.49213 -2.5161,1.49213 -1.4044,0 -2.1651,-1.22881 -2.1651,-2.10654 0,-1.08253 0.7022,-2.39911 2.8088,-2.92575 l 2.3991,-0.58515 z m -0.1463,4.85675 c 0.1755,0.58515 0.6144,1.63842 2.1065,1.63842 1.3751,0 2.3699,-1.11179 2.3699,-1.25808 0,-0.2048 -0.2926,-0.38034 -0.4096,-0.38034 -0.1756,0 -0.2633,0.46812 -0.8485,0.46812 -1.0825,0 -1.2288,-0.87773 -1.1703,-2.48689 l 0.1463,-4.15457 c 0.117,-3.89124 -1.931,-4.73971 -3.979,-4.73971 -2.2821,0 -4.7397,1.46287 -4.7397,2.95501 0,0.67292 0.4681,1.14104 1.1117,1.14104 0.8193,0 1.2874,-0.73144 1.2874,-1.08253 0,-0.2048 -0.029,-0.38035 -0.088,-0.49738 -0.029,-0.0878 -0.059,-0.26331 -0.059,-0.55589 0,-0.87772 1.1995,-1.31659 2.2528,-1.31659 0.9363,0 2.1943,0.7607 2.1943,3.92051 0,0.2048 -0.059,0.58515 -0.1463,0.61441 l -2.6331,0.58515 c -2.721,0.6144 -4.5935,2.01876 -4.5935,3.9205 0,2.1358 1.5214,2.86724 3.4817,2.86724 1.2873,0 1.8725,-0.26332 3.1013,-1.19956 l 0.5559,-0.43886 0.058,0 z"
           id="path5641" />
        <path
           inkscape:connector-curvature="0"
           d="m 1995.4705,857.85659 c -0.3803,0 -0.4974,0.17555 -0.4974,0.40961 l 0,0.26332 c 0,0.14628 0.029,0.17554 0.1463,0.17554 l 1.6385,0 c 0,2.77946 -0.1463,6.87551 -0.1463,8.63096 0,1.98951 0.6729,2.77947 1.9602,2.77947 1.2873,0 2.6917,-0.61441 3.7742,-1.84323 -0.058,-0.29257 -0.117,-0.35109 -0.2925,-0.4096 -0.7315,0.55589 -1.7555,0.99475 -2.4869,0.99475 -0.7607,0 -0.8778,-0.84846 -0.9363,-2.57466 -0.058,-1.46287 0.029,-4.97377 0.1463,-7.57769 l 2.8965,0 c 0.2926,0 0.6729,-0.0878 0.6729,-0.35109 l 0,-0.32183 c 0,-0.11703 -0.058,-0.17555 -0.2048,-0.17555 l -3.3646,0 0.029,-1.66767 c 0.029,-1.81397 0.117,-2.92575 0.117,-2.92575 0,-0.17555 -0.088,-0.26332 -0.2048,-0.26332 -0.2048,0 -0.6437,0.32183 -1.0825,0.49738 -0.4681,0.2048 -0.9655,0.23406 -0.9655,0.52663 0,0.32183 0.088,0.73144 0.088,3.83273 l -1.2874,0 z"
           id="path5643" />
        <path
           inkscape:connector-curvature="0"
           d="m 2007.489,861.83561 c 0,-0.58515 0.234,-0.93624 0.4681,-1.1703 1.0532,-1.05327 2.5161,-2.22357 3.6279,-2.22357 0.5559,0 1.1703,0.35109 1.4921,0.99476 0.2926,0.55589 0.3511,1.90174 0.4096,2.7502 0.059,1.46288 0.059,3.13056 0,4.59343 -0.117,2.28209 -0.2633,2.36986 -1.7261,2.51615 -0.1463,0.17554 -0.1463,0.49737 0,0.67292 1.1703,-0.0293 1.6676,-0.14629 2.7794,-0.14629 1.1411,0 1.6677,0.11703 2.8672,0.14629 0.1463,-0.17555 0.1463,-0.49738 0,-0.67292 -1.5506,-0.14629 -1.7847,-0.23406 -1.8724,-2.51615 -0.059,-1.46287 -0.059,-3.04278 0,-4.50565 0.058,-1.52139 -0.029,-2.8965 -0.673,-3.74496 -0.4681,-0.61441 -1.3458,-0.9655 -2.3113,-0.9655 -1.3751,0 -3.1013,0.38035 -4.7982,2.28208 -0.088,0.11703 -0.2926,0.38035 -0.2926,0 0,0 0.029,-6.08556 0.088,-7.54843 0.058,-1.81397 0.058,-1.57991 0.117,-2.63318 0,-0.2048 -0.088,-0.26331 -0.3511,-0.26331 -0.7022,0.29257 -2.6332,0.64366 -3.7449,0.73143 -0.059,0.23406 0,0.38035 0.1755,0.5559 1.4629,0.0878 1.6969,-0.0585 1.7847,2.28208 0.059,1.75545 0.059,12.05409 0,13.80954 -0.088,2.31134 -0.3511,2.39912 -1.9602,2.51615 -0.1756,0.17554 -0.1756,0.49737 0,0.67292 1.141,-0.0293 1.7847,-0.14629 2.9842,-0.14629 1.0825,0 1.4921,0.11703 2.6624,0.14629 0.1756,-0.17555 0.1756,-0.49738 0,-0.67292 -1.4043,-0.11703 -1.5799,-0.20481 -1.6676,-2.51615 -0.059,-1.46287 -0.059,-4.94452 -0.059,-4.94452 z"
           id="path5645" />
        <path
           inkscape:connector-curvature="0"
           d="m 2020.2077,852.29767 c 0,0.76069 0.7022,1.52139 1.4044,1.52139 0.8192,0 1.5214,-0.7607 1.5214,-1.40436 0,-0.70218 -0.6144,-1.52139 -1.4044,-1.52139 -0.7022,0 -1.5214,0.70218 -1.5214,1.40436 z m 2.8088,14.33617 c -0.059,-0.87772 -0.059,-2.3406 -0.059,-3.21832 0,-0.87773 0,-1.81397 0.059,-2.69169 0.058,-1.43362 0.1755,-3.04278 0.1755,-3.04278 0,-0.11703 -0.1463,-0.2048 -0.3803,-0.2048 -0.8485,0.32183 -1.8725,0.58515 -3.8913,0.84846 -0.059,0.17555 0,0.35109 0.058,0.52664 1.5799,0.17554 1.814,0.29257 1.9018,1.98951 0.029,0.87772 0.058,1.66768 0.058,2.5454 0,0.87773 -0.058,2.36986 -0.058,3.24758 -0.088,2.42838 -0.3219,2.51615 -2.1066,2.66244 -0.1755,0.17554 -0.1755,0.49737 0,0.67292 0.7607,-0.0585 2.3114,-0.14629 3.1891,-0.14629 0.907,0 2.2821,0.0878 3.1598,0.14629 0.1755,-0.17555 0.1755,-0.49738 0,-0.67292 -1.7847,-0.11703 -2.0188,-0.20481 -2.1065,-2.66244 z"
           id="path5647" />
        <path
           inkscape:connector-curvature="0"
           d="m 2037.077,867.27751 c -0.1171,-0.26332 -0.1756,-0.26332 -0.4389,-0.29258 -0.9362,1.22882 -2.4284,2.04803 -3.6279,2.04803 -2.1943,0 -4.0668,-2.10654 -4.0668,-5.61744 0,-3.07204 1.6677,-5.17858 3.5109,-5.17858 1.6384,0 2.0773,1.25807 2.1943,2.22357 0.088,0.78995 0.4681,0.99476 1.0533,0.99476 0.5851,0 1.3458,-0.35109 1.3458,-1.22882 0,-1.52139 -1.7554,-2.66243 -4.4471,-2.66243 -2.7502,0 -5.8808,2.51614 -5.8808,6.46591 0,3.59867 2.1651,6.08556 5.676,6.08556 1.6677,0 3.2768,-0.5559 4.6812,-2.83798 z"
           id="path5649" />
        <path
           inkscape:connector-curvature="0"
           d="m 2039.3275,866.13647 c 0.117,1.3751 0.1756,2.51614 0.1756,3.68644 0.2925,-0.0585 0.5559,-0.0878 0.7021,-0.0878 0.2048,0 0.3511,0 0.5559,0.0585 0.7607,0.20481 1.5214,0.32184 2.5454,0.32184 1.5507,0 4.4472,-0.78996 4.4472,-3.54016 0,-1.90174 -1.3751,-2.83798 -3.2769,-3.56942 -1.6676,-0.64366 -2.8965,-1.19955 -2.8965,-2.72094 0,-1.14105 0.9363,-2.07729 2.0773,-2.07729 1.024,0 2.5162,0.38035 2.8673,2.75021 0.1755,0.14629 0.4388,0.14629 0.6144,-0.0293 0.088,-0.99475 0.117,-1.90174 0.1463,-2.80872 -0.8778,-0.14629 -2.1651,-0.55589 -3.628,-0.55589 -2.2235,0 -3.9497,1.19956 -3.9497,3.13055 0,2.04803 1.0825,2.86724 3.072,3.7157 2.2821,0.99476 2.9258,1.60917 2.9258,2.80872 0,1.37511 -1.4337,2.25283 -2.4577,2.25283 -1.0825,0 -1.8432,-0.46812 -2.1358,-0.76069 -0.6729,-0.64367 -1.0532,-1.90174 -1.2288,-2.60392 -0.1755,-0.17555 -0.3803,-0.14629 -0.5559,0.0293 z"
           id="path5651" />
      </g>
    </g>
  </g>
</svg>
