<?xml version="1.0" encoding="UTF-8" standalone="no"?>
<!-- Generator: Adobe Illustrator 12.0.1, SVG Export Plug-In . SVG Version: 6.00 Build 51448)  -->
<svg
   xmlns:dc="http://purl.org/dc/elements/1.1/"
   xmlns:cc="http://web.resource.org/cc/"
   xmlns:rdf="http://www.w3.org/1999/02/22-rdf-syntax-ns#"
   xmlns:svg="http://www.w3.org/2000/svg"
   xmlns="http://www.w3.org/2000/svg"
   xmlns:sodipodi="http://sodipodi.sourceforge.net/DTD/sodipodi-0.dtd"
   xmlns:inkscape="http://www.inkscape.org/namespaces/inkscape"
   version="1.1"
   id="Layer_1"
   width="289.102"
   height="186.781"
   viewBox="0 0 289.102 186.781"
   style="overflow:visible;enable-background:new 0 0 289.102 186.781;"
   xml:space="preserve"
   sodipodi:version="0.32"
   inkscape:version="0.45.1"
   sodipodi:docname="Testosteron.svg"
   inkscape:output_extension="org.inkscape.output.svg.inkscape"
   sodipodi:docbase="C:\"><metadata
   id="metadata106"><rdf:RDF><cc:Work
       rdf:about=""><dc:format>image/svg+xml</dc:format><dc:type
         rdf:resource="http://purl.org/dc/dcmitype/StillImage" /></cc:Work></rdf:RDF></metadata><defs
   id="defs104" /><sodipodi:namedview
   inkscape:window-height="579"
   inkscape:window-width="801"
   inkscape:pageshadow="2"
   inkscape:pageopacity="0.0"
   guidetolerance="10.0"
   gridtolerance="10.0"
   objecttolerance="10.0"
   borderopacity="1.0"
   bordercolor="#666666"
   pagecolor="#ffffff"
   id="base"
   inkscape:zoom="2.0237604"
   inkscape:cx="144.55099"
   inkscape:cy="93.390503"
   inkscape:window-x="22"
   inkscape:window-y="22"
   inkscape:current-layer="Layer_1" />
<path
   d="M 48.498375,153.51935 L 46.884325,154.46935 L 46.884325,115.85185 L 48.498375,116.75435 L 48.498375,153.51935 z "
   id="polygon3" />
<path
   d="M 80.323375,171.90185 L 80.323375,173.80185 L 46.884325,154.46935 L 48.498375,153.51935 L 80.323375,171.90185 z "
   id="polygon5" />
<path
   d="M 112.14838,116.75435 L 112.95588,116.32685 L 113.76528,116.75435 L 113.76528,153.51935 L 112.95588,153.99435 L 112.14838,153.51935 L 112.14838,116.75435 z "
   id="polygon7" />
<path
   d="M 80.323375,98.37185 L 80.323375,96.51935 L 112.05433,114.85435 L 112.95588,116.32685 L 112.14838,116.75435 L 80.323375,98.37185 z "
   id="polygon9" />
<path
   d="M 48.498375,116.75435 L 46.884325,115.85185 L 80.323375,96.51935 L 80.323375,98.37185 L 48.498375,116.75435 z "
   id="polygon11" />
<path
   d="M 145.63588,171.90185 L 145.63588,173.80185 L 112.95588,154.94435 L 112.95588,153.99435 L 113.76528,153.51935 L 145.63588,171.90185 z "
   id="polygon13" />
<path
   d="M 177.46088,153.51935 L 179.07778,154.46935 L 145.63588,173.80185 L 145.63588,171.90185 L 177.46088,153.51935 z "
   id="polygon15" />
<path
   d="M 177.46088,116.75435 L 178.26838,116.32685 L 179.07778,116.75435 L 179.07778,154.46935 L 177.46088,153.51935 L 177.46088,116.75435 z "
   id="polygon17" />
<path
   d="M 145.63588,98.37185 L 145.63588,97.46935 L 146.44338,96.99435 L 177.31838,114.80685 L 178.26838,116.32685 L 177.46088,116.75435 L 145.63588,98.37185 z "
   id="polygon19" />
<path
   d="M 210.09338,60.22935 L 210.90278,59.75435 L 211.70933,60.32435 L 211.70933,96.85185 L 210.90278,97.46935 L 210.09338,96.99435 L 210.09338,60.22935 z "
   id="polygon21" />
<path
   d="M 178.26838,41.84685 L 178.26838,39.94685 L 209.99838,58.28185 L 210.90278,59.75435 L 210.09338,60.22935 L 178.26838,41.84685 z "
   id="polygon23" />
<path
   d="M 146.44338,60.22935 L 144.82933,59.27935 L 178.26838,39.94685 L 178.26838,41.84685 L 146.44338,60.22935 z "
   id="polygon25" />
<path
   d="M 146.44338,96.99435 L 145.63588,97.46935 L 144.82933,96.99435 L 144.82933,59.27935 L 146.44338,60.22935 L 146.44338,96.99435 z "
   id="polygon27" />
<path
   d="M 109.34683,78.61185 L 116.61528,78.61185 L 113.90588,114.85435 L 112.95588,116.32685 L 112.05433,114.85435 L 109.34683,78.61185 z "
   id="polygon29" />
<g
   id="g31"
   transform="matrix(0.95,0,0,0.95,7.227525,4.66955)">
	<path
   d="M 207.731,146.784 L 207.731,129.596 L 210.012,129.596 L 210.012,136.659 L 218.903,136.659 L 218.903,129.596 L 221.184,129.596 L 221.184,146.784 L 218.903,146.784 L 218.903,138.69 L 210.012,138.69 L 210.012,146.784 L 207.731,146.784 z "
   id="path33" />
</g>
<path
   d="M 214.55933,125.63685 L 207.29183,125.63685 L 207.48088,124.02185 L 214.36838,124.02185 L 214.55933,125.63685 z "
   id="polygon35" />
<path
   d="M 214.03588,121.12435 L 207.81528,121.12435 L 208.00433,119.50935 L 213.84683,119.50935 L 214.03588,121.12435 z "
   id="polygon37" />
<path
   d="M 213.51528,116.61185 L 208.33588,116.61185 L 208.52778,114.99685 L 213.32338,114.99685 L 213.51528,116.61185 z "
   id="polygon39" />
<path
   d="M 212.99183,112.09935 L 208.85933,112.09935 L 209.04838,110.48435 L 212.80278,110.48435 L 212.99183,112.09935 z "
   id="polygon41" />
<path
   d="M 212.42183,107.63435 L 209.38088,107.63435 L 209.57183,106.01935 L 212.23088,106.01935 L 212.42183,107.63435 z "
   id="polygon43" />
<path
   d="M 211.89838,103.12185 L 209.90433,103.12185 L 210.09338,101.50685 L 211.70933,101.50685 L 211.89838,103.12185 z "
   id="polygon45" />
<path
   d="M 246.47933,108.15685 L 247.09683,110.05685 L 210.99683,98.32435 L 210.90278,97.46935 L 211.70933,96.85185 L 246.47933,108.15685 z "
   id="polygon47" />
<path
   d="M 267.94838,78.61185 L 269.94338,78.61185 L 247.09683,110.05685 L 246.47933,108.15685 L 267.94838,78.61185 z "
   id="polygon49" />
<path
   d="M 246.47933,49.06685 L 246.76528,48.11685 L 247.71528,48.02185 L 269.94338,78.61185 L 267.94838,78.61185 L 246.47933,49.06685 z "
   id="polygon51" />
<path
   d="M 80.323375,173.80185 L 80.323375,171.90185 L 112.14838,153.51935 L 112.95588,153.99435 L 112.95588,154.94435 L 80.323375,173.80185 z "
   id="polygon53" />
<path
   d="M 80.704325,167.00935 L 79.896825,165.63185 L 106.92338,150.05185 L 107.73088,151.42935 L 80.704325,167.00935 z "
   id="polygon55" />
<path
   d="M 144.82933,96.99435 L 145.63588,97.46935 L 145.63588,98.37185 L 113.76528,116.75435 L 112.95588,116.32685 L 113.90588,114.85435 L 144.82933,96.99435 z "
   id="polygon57" />
<path
   d="M 210.09338,96.99435 L 210.90278,97.46935 L 210.99683,98.32435 L 179.07778,116.75435 L 178.26838,116.32685 L 179.21838,114.80685 L 210.09338,96.99435 z "
   id="polygon59" />
<path
   d="M 246.09838,47.49935 L 246.76528,48.11685 L 246.47933,49.06685 L 211.70933,60.32435 L 210.90278,59.75435 L 211.80433,58.61435 L 246.09838,47.49935 z "
   id="polygon61" />
<g
   id="g63"
   transform="matrix(0.95,0,0,0.95,7.227525,4.66955)">
	<path
   d="M 0,178.119 C 0,175.266 0.766,173.034 2.298,171.421 C 3.83,169.807 5.808,169 8.23,169 C 9.817,169 11.247,169.379 12.521,170.137 C 13.795,170.896 14.766,171.952 15.435,173.308 C 16.104,174.664 16.437,176.202 16.437,177.92 C 16.437,179.663 16.085,181.222 15.382,182.597 C 14.679,183.972 13.682,185.014 12.392,185.721 C 11.102,186.428 9.711,186.782 8.218,186.782 C 6.6,186.782 5.154,186.391 3.88,185.61 C 2.606,184.829 1.641,183.761 0.984,182.41 C 0.327,181.059 0,179.628 0,178.119 z M 2.344,178.148 C 2.344,180.218 2.901,181.849 4.015,183.041 C 5.129,184.233 6.527,184.828 8.207,184.828 C 9.919,184.828 11.328,184.226 12.435,183.023 C 13.541,181.82 14.094,180.113 14.094,177.902 C 14.094,176.504 13.858,175.283 13.385,174.24 C 12.912,173.197 12.22,172.388 11.309,171.814 C 10.398,171.24 9.376,170.953 8.243,170.953 C 6.633,170.953 5.247,171.506 4.086,172.611 C 2.925,173.716 2.344,175.563 2.344,178.148 z "
   id="path65" />
</g>
<path
   d="M 25.460875,171.04685 L 24.654325,169.62185 L 50.115275,154.94435 L 50.921825,156.32185 L 25.460875,171.04685 z "
   id="polygon67" />
<path
   d="M 22.610875,166.15435 L 21.804325,164.72935 L 47.265275,150.05185 L 48.071825,151.42935 L 22.610875,166.15435 z "
   id="polygon69" />
<path
   d="M 207.29183,22.03935 L 214.55933,22.03935 L 211.80433,58.61435 L 210.90278,59.75435 L 209.99838,58.28185 L 207.29183,22.03935 z "
   id="polygon71" />
<g
   id="g73"
   transform="matrix(0.95,0,0,0.95,7.227525,4.66955)">
	<path
   d="M 138.981,146.784 L 138.981,129.596 L 141.262,129.596 L 141.262,136.659 L 150.153,136.659 L 150.153,129.596 L 152.434,129.596 L 152.434,146.784 L 150.153,146.784 L 150.153,138.69 L 141.262,138.69 L 141.262,146.784 L 138.981,146.784 z "
   id="path75" />
</g>
<path
   d="M 149.24683,125.63685 L 141.97933,125.63685 L 142.16838,124.02185 L 149.05588,124.02185 L 149.24683,125.63685 z "
   id="polygon77" />
<path
   d="M 148.72338,121.12435 L 142.50278,121.12435 L 142.69183,119.50935 L 148.53433,119.50935 L 148.72338,121.12435 z "
   id="polygon79" />
<path
   d="M 148.20278,116.61185 L 143.02338,116.61185 L 143.21528,114.99685 L 148.01088,114.99685 L 148.20278,116.61185 z "
   id="polygon81" />
<path
   d="M 147.67933,112.09935 L 143.54683,112.09935 L 143.73588,110.48435 L 147.49028,110.48435 L 147.67933,112.09935 z "
   id="polygon83" />
<path
   d="M 147.15588,107.63435 L 144.11683,107.63435 L 144.30588,106.01935 L 146.96683,106.01935 L 147.15588,107.63435 z "
   id="polygon85" />
<path
   d="M 146.63433,103.12185 L 144.64028,103.12185 L 144.82933,101.50685 L 146.44338,101.50685 L 146.63433,103.12185 z "
   id="polygon87" />
<g
   id="g89"
   transform="matrix(0.95,0,0,0.95,7.227525,4.66955)">
	<path
   d="M 173.332,87.284 L 173.332,70.097 L 175.613,70.097 L 175.613,77.16 L 184.504,77.16 L 184.504,70.097 L 186.785,70.097 L 186.785,87.285 L 184.504,87.285 L 184.504,79.19 L 175.613,79.19 L 175.613,87.284 L 173.332,87.284 L 173.332,87.284 z "
   id="path91" />
</g>
<path
   d="M 174.61088,89.72685 L 181.92778,89.72685 L 179.21838,114.80685 L 178.26838,116.32685 L 177.31838,114.80685 L 174.61088,89.72685 z "
   id="polygon93" />
<g
   id="g95"
   transform="matrix(0.95,0,0,0.95,7.227525,4.66955)">
	<path
   d="M 256.199,9.119 C 256.199,6.266 256.965,4.034 258.498,2.421 C 260.029,0.807 262.008,0 264.43,0 C 266.018,0 267.448,0.379 268.721,1.137 C 269.995,1.896 270.967,2.952 271.635,4.308 C 272.303,5.664 272.637,7.202 272.637,8.92 C 272.637,10.663 272.285,12.222 271.582,13.597 C 270.879,14.972 269.882,16.014 268.592,16.721 C 267.303,17.428 265.911,17.782 264.418,17.782 C 262.801,17.782 261.354,17.391 260.08,16.61 C 258.806,15.829 257.842,14.761 257.184,13.41 C 256.526,12.059 256.199,10.628 256.199,9.119 z M 258.543,9.148 C 258.543,11.218 259.1,12.849 260.215,14.041 C 261.328,15.232 262.727,15.828 264.406,15.828 C 266.119,15.828 267.527,15.226 268.635,14.023 C 269.74,12.82 270.293,11.113 270.293,8.902 C 270.293,7.504 270.057,6.283 269.584,5.24 C 269.111,4.197 268.419,3.388 267.508,2.814 C 266.598,2.24 265.576,1.953 264.442,1.953 C 262.833,1.953 261.446,2.506 260.286,3.611 C 259.123,4.717 258.543,6.563 258.543,9.148 z "
   id="path97" />
	<path
   d="M 275.648,17.484 L 275.648,0.297 L 277.929,0.297 L 277.929,7.36 L 286.82,7.36 L 286.82,0.297 L 289.101,0.297 L 289.101,17.485 L 286.82,17.485 L 286.82,9.391 L 277.929,9.391 L 277.929,17.485 L 275.648,17.485 L 275.648,17.484 z "
   id="path99" />
</g>
<path
   d="M 251.41838,21.99185 L 258.35433,24.22435 L 247.71528,48.02185 L 246.76528,48.11685 L 246.09838,47.49935 L 251.41838,21.99185 z "
   id="polygon101" />
</svg>