<?xml version="1.0" standalone="no"?>
<!DOCTYPE svg PUBLIC "-//W3C//DTD SVG 20010904//EN"
 "http://www.w3.org/TR/2001/REC-SVG-20010904/DTD/svg10.dtd">
<svg version="1.0" xmlns="http://www.w3.org/2000/svg"
 width="700.000000pt" height="700.000000pt" viewBox="0 0 700.000000 700.000000"
 preserveAspectRatio="xMidYMid meet">
<metadata>
Created by potrace 1.11, written by Peter Selinger 2001-2013
</metadata>
<g transform="translate(0.000000,700.000000) scale(0.100000,-0.100000)"
fill="#000000" stroke="none">
<path d="M3300 6993 c-171 -17 -450 -76 -625 -133 -359 -116 -744 -308 -1085
-541 -107 -73 -348 -255 -382 -289 -8 -8 -39 -35 -69 -60 -77 -64 -334 -321
-410 -410 -35 -41 -67 -77 -70 -80 -3 -3 -51 -64 -105 -137 -196 -260 -335
-513 -423 -772 -43 -126 -95 -358 -107 -481 -2 -25 -8 -79 -13 -120 -9 -77 -7
-508 2 -570 3 -19 8 -67 12 -107 5 -59 24 -194 51 -348 12 -74 59 -263 101
-410 111 -388 267 -750 464 -1076 427 -708 919 -1091 1674 -1303 105 -29 340
-82 405 -90 25 -3 56 -8 70 -10 32 -6 162 -24 220 -30 235 -28 742 -28 970 -1
19 2 60 6 90 10 217 22 550 96 780 172 672 222 1123 601 1532 1288 278 466
488 1067 572 1637 17 113 20 136 33 283 15 170 8 579 -12 684 -1 9 -6 39 -9
66 -61 459 -301 944 -686 1386 -85 98 -326 338 -420 419 -41 36 -103 91 -137
123 -35 31 -89 74 -120 95 -32 20 -114 76 -183 123 -348 240 -745 438 -1115
556 -108 34 -320 86 -400 98 -58 8 -96 14 -130 21 -34 6 -422 12 -475 7z m222
-314 l-42 -30 -35 26 c-19 15 -35 29 -35 31 0 2 35 4 77 4 l77 0 -42 -31z
m647 -108 c99 -28 216 -96 316 -185 38 -34 39 -35 15 -36 -50 -2 -317 -44
-380 -60 -19 -5 -46 -11 -60 -14 -38 -6 -79 -16 -149 -34 l-64 -16 -19 25
c-35 45 -138 189 -138 193 0 7 126 85 165 102 101 43 216 52 314 25z m-1118
-11 c54 -15 153 -63 197 -97 l33 -25 -25 -31 c-14 -18 -49 -67 -77 -109 -53
-81 -60 -84 -119 -68 -19 5 -46 11 -60 14 -14 2 -68 13 -120 25 -52 11 -113
23 -134 26 -21 3 -48 7 -60 10 -29 6 -79 13 -156 21 -36 3 -67 8 -68 9 -2 2
15 20 37 40 102 92 232 166 334 189 61 15 155 13 218 -4z m468 -374 l32 -40
-33 -13 c-32 -14 -98 -10 -98 5 0 10 61 94 65 90 2 -2 17 -21 34 -42z m1283
-168 c97 -137 328 -550 328 -586 0 -26 -42 -23 -98 9 -81 46 -480 247 -587
296 -172 79 -392 173 -405 173 -5 0 -18 12 -30 27 -26 34 -35 31 175 72 179
36 394 65 501 69 l71 3 45 -63z m-2347 27 c17 -3 53 -7 80 -10 28 -3 75 -9
105 -15 30 -5 71 -12 90 -15 19 -3 49 -8 65 -12 17 -4 32 -7 35 -8 3 0 35 -7
73 -14 37 -7 67 -17 67 -21 0 -9 -45 -40 -59 -40 -6 0 -34 -11 -63 -24 -29
-14 -80 -36 -113 -49 -154 -64 -703 -334 -725 -357 -3 -3 -29 -17 -58 -32 -50
-27 -92 -36 -92 -20 0 33 247 476 326 585 l35 49 102 -7 c56 -3 116 -8 132
-10z m2829 -26 c93 -31 110 -41 219 -127 96 -76 149 -175 163 -307 3 -27 7
-62 9 -77 4 -33 -4 -36 -105 -37 -41 -1 -88 -4 -105 -6 l-30 -5 -102 207 c-56
115 -127 250 -157 301 l-55 93 37 -7 c20 -3 77 -19 126 -35z m-3459 -34 c-62
-107 -101 -180 -181 -343 l-85 -174 -57 6 c-31 3 -81 5 -111 5 l-54 1 6 64
c20 224 159 384 397 456 41 12 80 24 85 25 25 8 25 2 0 -40z m1733 -199 c40
-14 72 -22 72 -18 0 4 4 2 8 -4 4 -6 45 -24 91 -39 71 -25 85 -34 93 -57 6
-16 15 -25 21 -21 6 3 7 1 3 -5 -4 -7 -4 -18 1 -24 4 -7 8 -15 8 -18 1 -3 11
-27 24 -55 12 -27 34 -79 49 -115 14 -36 32 -75 40 -87 8 -13 12 -23 9 -23 -3
0 8 -33 24 -72 17 -40 32 -80 34 -88 2 -8 7 -24 10 -36 5 -15 0 -23 -22 -34
-15 -7 -30 -14 -33 -15 -28 -6 -80 -28 -80 -33 0 -4 -12 -8 -26 -9 -15 0 -29
-5 -33 -10 -3 -4 -15 -10 -26 -11 -11 -2 -35 -12 -55 -22 -19 -10 -39 -19 -45
-21 -5 -1 -18 -4 -27 -7 -10 -2 -15 -8 -12 -13 3 -5 -1 -6 -9 -3 -8 3 -18 1
-22 -5 -3 -6 -15 -11 -26 -11 -10 0 -19 -4 -19 -10 0 -5 -3 -9 -7 -9 -21 3
-33 -2 -27 -13 4 -7 3 -8 -4 -4 -6 4 -26 0 -45 -7 -29 -12 -37 -12 -60 0 -15
7 -27 10 -27 6 0 -4 -4 -3 -8 3 -7 11 -117 57 -128 54 -4 -1 -10 2 -13 7 -10
14 -133 63 -142 57 -5 -3 -9 0 -9 5 0 6 -9 11 -19 11 -11 0 -21 5 -23 10 -2 6
-14 12 -28 14 -14 2 -51 15 -83 30 -32 14 -63 23 -69 20 -5 -4 -2 5 7 19 9 14
16 27 15 29 -2 3 7 30 23 73 7 17 12 32 13 35 0 3 7 21 16 40 9 19 28 67 43
105 39 97 52 128 97 221 36 77 41 82 86 99 26 9 54 19 62 22 126 47 168 62
186 62 11 1 53 -10 92 -23z m648 -244 c-3 -5 14 -17 37 -27 173 -76 417 -196
424 -209 3 -6 3 -8 -2 -4 -4 4 -24 1 -44 -7 -20 -8 -64 -21 -98 -31 -35 -9
-60 -21 -57 -26 4 -6 -2 -8 -13 -4 -11 4 -33 1 -49 -5 -79 -32 -84 -31 -103
29 -9 29 -20 49 -24 45 -5 -4 -6 -1 -3 7 7 19 -57 173 -68 163 -4 -4 -4 0 -1
9 4 9 2 25 -4 36 -6 11 -7 22 -4 26 9 9 15 7 9 -2z m-1426 -6 c0 -2 -14 -36
-30 -77 -17 -40 -28 -79 -25 -87 2 -7 0 -10 -5 -7 -6 3 -11 1 -11 -4 -2 -14
-4 -23 -12 -41 -19 -44 -35 -99 -30 -104 15 -15 -36 -3 -129 29 -56 20 -108
33 -115 31 -7 -3 -13 -2 -13 3 0 5 -15 12 -32 16 -18 4 -36 9 -40 10 -5 1 -16
3 -25 5 -15 1 -15 3 -3 7 8 3 23 13 34 22 10 9 21 15 25 15 13 -3 111 49 111
58 0 5 4 7 9 4 5 -3 26 3 48 14 77 40 228 110 235 110 5 0 8 -2 8 -4z m-1730
-65 c0 -5 -7 -12 -16 -15 -14 -5 -15 -4 -4 9 14 17 20 19 20 6z m4936 -28 c-7
-7 -26 7 -26 19 0 6 6 6 15 -2 9 -7 13 -15 11 -17z m-3522 -201 c3 -5 -1 -9
-9 -9 -8 0 -12 4 -9 9 3 4 7 8 9 8 2 0 6 -4 9 -8z m-1028 -79 c-8 -31 -36 -57
-48 -45 -4 4 -11 22 -14 40 -6 31 -6 32 31 32 36 0 37 -1 31 -27z m4190 -16
c-11 -69 -33 -71 -60 -5 -15 36 -15 37 7 40 61 9 60 10 53 -35z m-4525 -80
c14 -56 29 -109 33 -118 6 -13 -9 -29 -56 -65 -35 -27 -72 -56 -83 -65 -11
-10 -51 -43 -90 -74 -38 -31 -120 -104 -182 -161 -61 -57 -114 -101 -116 -97
-3 5 -3 55 -2 113 9 300 136 474 400 551 33 10 62 18 65 18 3 1 17 -45 31
-102z m4900 68 c240 -83 353 -247 366 -532 3 -68 3 -123 0 -123 -3 0 -34 27
-68 61 -35 33 -87 81 -117 107 -30 26 -60 52 -66 57 -26 25 -226 184 -242 193
-17 9 -16 15 9 98 15 49 30 104 33 122 7 37 20 39 85 17z m-3734 -99 c11 -1
19 -4 16 -8 -2 -5 2 -8 9 -9 22 -1 41 -6 107 -28 35 -12 70 -20 78 -17 8 3 12
2 9 -3 -3 -4 13 -14 34 -21 22 -7 40 -16 40 -19 0 -3 -13 -48 -30 -100 -16
-52 -27 -97 -25 -102 3 -4 0 -9 -5 -11 -6 -2 -12 -17 -13 -33 -1 -17 -5 -32
-9 -35 -4 -3 -9 -18 -12 -34 -3 -16 -8 -31 -10 -34 -3 -3 -1 -11 6 -19 9 -11
8 -13 -2 -11 -15 3 -43 -94 -36 -125 2 -9 0 -15 -4 -12 -4 3 -14 -14 -22 -36
-10 -33 -22 -46 -58 -66 -25 -13 -44 -28 -42 -34 1 -6 -2 -8 -7 -5 -14 9 -63
-12 -56 -24 3 -5 0 -8 -7 -5 -17 6 -154 -71 -151 -84 2 -6 -4 -8 -13 -4 -9 3
-19 2 -23 -3 -3 -5 -28 -21 -56 -36 -27 -15 -49 -31 -48 -36 1 -5 -3 -9 -10
-9 -7 0 -22 -3 -34 -7 -17 -5 -25 -1 -39 23 -10 16 -22 27 -27 24 -6 -3 -7 -1
-3 5 6 11 -8 50 -23 62 -3 3 -21 34 -40 70 -19 36 -37 67 -40 70 -3 3 -42 76
-85 164 l-79 159 18 56 c10 31 20 61 21 66 2 6 12 35 23 65 12 30 23 66 26 79
2 13 5 24 7 26 92 63 126 85 136 85 7 0 12 5 12 10 0 6 6 10 13 11 6 0 39 17
71 38 l59 37 151 -40 c83 -21 161 -40 173 -40z m2902 -7 c184 -112 172 -99
224 -254 39 -118 43 -140 34 -165 -6 -17 -15 -30 -19 -30 -4 0 -8 -5 -8 -11 0
-16 -91 -193 -101 -197 -5 -2 -9 -12 -9 -22 0 -10 -4 -21 -9 -25 -16 -9 -41
-67 -34 -78 3 -5 2 -7 -4 -4 -5 3 -20 -12 -33 -35 -19 -33 -20 -42 -9 -50 11
-7 10 -8 -4 -6 -11 2 -24 -8 -35 -27 -9 -16 -20 -31 -24 -33 -5 -2 -8 -10 -8
-18 0 -21 -31 -17 -72 11 -39 26 -64 33 -52 13 4 -7 3 -8 -5 -4 -6 4 -9 11 -6
16 7 12 -204 132 -218 124 -7 -4 -9 -3 -4 1 7 9 -68 57 -90 58 -7 0 -13 4 -13
9 0 5 -4 6 -10 3 -5 -3 -10 -2 -10 3 0 5 -18 17 -40 27 -22 10 -37 21 -35 25
5 8 -25 122 -34 130 -3 3 -6 14 -5 25 0 11 -3 25 -7 30 -4 6 -10 28 -14 50 -4
22 -11 45 -15 50 -5 6 -8 12 -7 15 2 9 -26 105 -33 115 -4 6 -10 27 -14 48 -4
21 -10 36 -14 33 -4 -2 -7 14 -7 37 0 37 3 41 33 51 18 6 30 15 25 20 -4 5 -2
6 5 2 7 -4 27 -3 45 3 17 6 34 10 37 9 3 -1 16 5 30 12 14 7 34 14 45 15 11 2
67 16 125 33 159 47 253 70 269 66 7 -2 66 -36 130 -75z m-2639 11 c0 -5 -5
-10 -11 -10 -5 0 -7 5 -4 10 3 6 8 10 11 10 2 0 4 -4 4 -10z m210 4 c0 -8 -19
-13 -24 -6 -3 5 1 9 9 9 8 0 15 -2 15 -3z m1704 -2 c3 -5 -1 -9 -9 -9 -8 0
-12 4 -9 9 3 4 7 8 9 8 2 0 6 -4 9 -8z m-1874 -42 c0 -5 -5 -10 -11 -10 -5 0
-7 5 -4 10 3 6 8 10 11 10 2 0 4 -4 4 -10z m1160 -54 c0 -2 -7 -7 -16 -10 -8
-3 -12 -2 -9 4 6 10 25 14 25 6z m-805 -65 c3 -5 2 -12 -3 -15 -5 -3 -9 1 -9
9 0 17 3 19 12 6z m80 -1 c3 -5 1 -10 -4 -10 -6 0 -11 5 -11 10 0 6 2 10 4 10
3 0 8 -4 11 -10z m99 2 c3 -5 -1 -9 -9 -9 -8 0 -12 4 -9 9 3 4 7 8 9 8 2 0 6
-4 9 -8z m291 -2 c3 -6 -1 -7 -9 -4 -18 7 -21 14 -7 14 6 0 13 -4 16 -10z
m570 1 c3 -5 2 -12 -3 -15 -5 -3 -9 1 -9 9 0 17 3 19 12 6z m-1088 -60 c17 -7
37 -10 44 -5 7 4 10 3 6 -3 -6 -9 180 -86 208 -86 7 0 11 -6 8 -13 -3 -8 -8
-13 -11 -12 -13 4 -52 -14 -48 -21 3 -4 -7 -8 -22 -9 -15 -1 -28 -7 -30 -12
-2 -6 -10 -10 -18 -10 -18 0 -97 -39 -105 -52 -3 -5 -10 -9 -15 -9 -18 1 -44
-11 -44 -20 0 -6 -4 -7 -10 -4 -5 3 -10 1 -10 -5 0 -6 -4 -9 -9 -5 -5 3 -16
-1 -24 -9 -8 -8 -17 -12 -21 -9 -3 3 -15 -2 -25 -11 -19 -18 -19 -17 -5 36 19
67 20 70 27 88 19 49 27 91 21 101 -4 7 -3 9 3 6 5 -3 15 17 22 45 8 27 16 46
20 41 3 -5 20 -15 38 -22z m513 19 c0 -5 -5 -10 -11 -10 -5 0 -7 5 -4 10 3 6
8 10 11 10 2 0 4 -4 4 -10z m884 2 c3 -5 -1 -9 -9 -9 -8 0 -12 4 -9 9 3 4 7 8
9 8 2 0 6 -4 9 -8z m-788 -24 c3 -4 -1 -5 -10 -4 -8 1 -18 5 -22 8 -3 4 1 5
10 4 8 -1 18 -5 22 -8z m268 4 c3 -5 -1 -9 -9 -9 -8 0 -12 4 -9 9 3 4 7 8 9 8
2 0 6 -4 9 -8z m416 -69 c13 -43 28 -84 33 -90 5 -7 7 -13 4 -13 -3 0 3 -27
13 -60 18 -59 18 -59 -3 -57 -11 1 -32 12 -45 25 -14 12 -27 20 -30 17 -3 -3
-25 7 -49 21 -24 14 -49 22 -56 18 -6 -4 -9 -3 -4 1 6 7 -117 73 -148 78 -12
3 -35 23 -35 33 0 4 3 5 6 1 10 -9 64 14 57 26 -4 6 -1 7 6 2 7 -4 29 0 49 9
37 16 80 32 94 35 4 1 20 8 35 16 16 8 33 15 39 15 6 0 21 -35 34 -77z m-1060
53 c0 -2 -7 -7 -16 -10 -8 -3 -12 -2 -9 4 6 10 25 14 25 6z m476 -11 c-1 -8
-5 -17 -8 -21 -5 -4 -4 16 1 34 3 9 9 -1 7 -13z m40 -11 c1 -9 0 -13 -4 -10
-3 4 -7 14 -8 22 -1 9 0 13 4 10 3 -4 7 -14 8 -22z m80 0 c1 -9 0 -13 -4 -10
-3 4 -7 14 -8 22 -1 9 0 13 4 10 3 -4 7 -14 8 -22z m164 16 c0 -5 -2 -10 -4
-10 -3 0 -8 5 -11 10 -3 6 -1 10 4 10 6 0 11 -4 11 -10z m-820 -20 c0 -5 -5
-10 -11 -10 -5 0 -7 5 -4 10 3 6 8 10 11 10 2 0 4 -4 4 -10z m335 1 c3 -5 2
-12 -3 -15 -5 -3 -9 1 -9 9 0 17 3 19 12 6z m529 1 c3 -5 -1 -9 -9 -9 -8 0
-12 4 -9 9 3 4 7 8 9 8 2 0 6 -4 9 -8z m-759 -22 c3 -6 -1 -7 -9 -4 -18 7 -21
14 -7 14 6 0 13 -4 16 -10z m352 -15 c0 -8 -4 -12 -9 -9 -5 3 -6 10 -3 15 9
13 12 11 12 -6z m-261 -7 c3 -4 -1 -5 -10 -4 -8 1 -18 5 -22 8 -3 4 1 5 10 4
8 -1 18 -5 22 -8z m300 -14 c1 -9 0 -13 -4 -10 -3 4 -7 14 -8 22 -1 9 0 13 4
10 3 -4 7 -14 8 -22z m40 11 c-1 -8 -5 -17 -8 -21 -5 -4 -4 16 1 34 3 9 9 -1
7 -13z m80 -11 c1 -9 0 -13 -4 -10 -3 4 -7 14 -8 22 -1 9 0 13 4 10 3 -4 7
-14 8 -22z m39 16 c3 -5 1 -10 -4 -10 -6 0 -11 5 -11 10 0 6 2 10 4 10 3 0 8
-4 11 -10z m78 -15 c-7 -21 -12 -19 -10 4 0 11 5 18 9 15 4 -3 5 -11 1 -19z
m-480 -10 c4 -8 3 -16 -1 -19 -4 -3 -9 4 -9 15 -2 23 3 25 10 4z m44 -4 c0
-11 -5 -18 -9 -15 -4 3 -5 11 -1 19 7 21 12 19 10 -4z m1113 13 c0 -8 -19 -13
-24 -6 -3 5 1 9 9 9 8 0 15 -2 15 -3z m-1275 -23 c-9 -8 -36 -10 -30 -2 2 4
11 8 20 8 8 0 13 -3 10 -6z m240 -1 c3 -5 1 -10 -4 -10 -6 0 -11 5 -11 10 0 6
2 10 4 10 3 0 8 -4 11 -10z m-820 -9 c3 -5 2 -12 -3 -15 -5 -3 -9 1 -9 9 0 17
3 19 12 6z m1120 0 c3 -5 2 -12 -3 -15 -5 -3 -9 1 -9 9 0 17 3 19 12 6z m-241
-9 c3 -5 -1 -9 -9 -9 -8 0 -12 4 -9 9 3 4 7 8 9 8 2 0 6 -4 9 -8z m-294 -16
c0 -3 -4 -8 -10 -11 -5 -3 -10 -1 -10 4 0 6 5 11 10 11 6 0 10 -2 10 -4z m155
-6 c3 -5 1 -10 -4 -10 -6 0 -11 5 -11 10 0 6 2 10 4 10 3 0 8 -4 11 -10z m465
5 c0 -7 -30 -13 -34 -7 -3 4 4 9 15 9 10 1 19 0 19 -2z m116 -7 c3 -4 -1 -5
-10 -4 -8 1 -18 5 -22 8 -3 4 1 5 10 4 8 -1 18 -5 22 -8z m-842 -24 c3 -8 2
-12 -4 -9 -6 3 -10 10 -10 16 0 14 7 11 14 -7z m481 6 c3 -5 1 -10 -4 -10 -6
0 -11 5 -11 10 0 6 2 10 4 10 3 0 8 -4 11 -10z m49 2 c3 -5 -1 -9 -9 -9 -8 0
-15 4 -15 9 0 4 4 8 9 8 6 0 12 -4 15 -8z m111 -2 c3 -5 1 -10 -4 -10 -6 0
-11 5 -11 10 0 6 2 10 4 10 3 0 8 -4 11 -10z m585 6 c0 -2 -7 -7 -16 -10 -8
-3 -12 -2 -9 4 6 10 25 14 25 6z m-3060 -18 c0 -7 -9 -42 -20 -78 -21 -67 -95
-346 -104 -390 -3 -14 -23 -104 -45 -200 -35 -159 -83 -404 -95 -489 -3 -19
-11 -41 -19 -49 -13 -12 -20 -3 -55 70 -119 250 -251 604 -235 631 34 56 281
294 433 417 30 25 69 57 85 72 32 30 55 36 55 16z m1935 -8 c3 -5 1 -10 -4
-10 -6 0 -11 5 -11 10 0 6 2 10 4 10 3 0 8 -4 11 -10z m165 0 c0 -5 -5 -10
-11 -10 -5 0 -7 5 -4 10 3 6 8 10 11 10 2 0 4 -4 4 -10z m440 0 c0 -5 -5 -10
-11 -10 -5 0 -7 5 -4 10 3 6 8 10 11 10 2 0 4 -4 4 -10z m40 0 c0 -5 -5 -10
-11 -10 -5 0 -7 5 -4 10 3 6 8 10 11 10 2 0 4 -4 4 -10z m80 6 c0 -3 -4 -8
-10 -11 -5 -3 -10 -1 -10 4 0 6 5 11 10 11 6 0 10 -2 10 -4z m354 -4 c3 -5 -1
-9 -9 -9 -8 0 -12 4 -9 9 3 4 7 8 9 8 2 0 6 -4 9 -8z m1633 -108 c149 -123
403 -375 403 -400 0 -28 -98 -309 -148 -424 -126 -289 -132 -298 -146 -200
-13 94 -47 275 -71 385 -9 39 -18 83 -21 98 -3 16 -21 90 -40 165 -19 75 -36
144 -38 153 -15 61 -69 256 -81 288 -7 22 -11 42 -8 45 6 5 44 -23 150 -110z
m-2928 93 c8 -10 7 -14 -2 -14 -8 0 -14 6 -14 14 0 7 1 13 2 13 2 0 8 -6 14
-13z m514 -2 c-3 -9 -8 -14 -10 -11 -3 3 -2 9 2 15 9 16 15 13 8 -4z m-878
-13 c-3 -3 -11 0 -18 7 -9 10 -8 11 6 5 10 -3 15 -9 12 -12z m840 0 c-3 -3
-11 0 -18 7 -9 10 -8 11 6 5 10 -3 15 -9 12 -12z m122 3 c0 -8 -4 -12 -9 -9
-5 3 -6 10 -3 15 9 13 12 11 12 -6z m-217 -15 c0 -5 -2 -10 -4 -10 -3 0 -8 5
-11 10 -3 6 -1 10 4 10 6 0 11 -4 11 -10z m964 2 c3 -5 -1 -9 -9 -9 -8 0 -12
4 -9 9 3 4 7 8 9 8 2 0 6 -4 9 -8z m-830 -14 c-5 -7 -2 -9 9 -5 9 3 17 3 19
-1 4 -9 140 -67 151 -64 4 1 7 -2 7 -7 0 -9 40 -27 49 -22 2 2 7 -1 10 -6 13
-17 73 -44 87 -39 8 3 13 2 10 -2 -5 -8 128 -77 149 -77 6 0 13 -4 18 -10 4
-6 11 -4 18 5 9 13 10 13 5 -2 -3 -12 4 -22 26 -32 17 -9 34 -13 39 -10 5 3 9
1 9 -4 0 -5 25 -22 56 -38 47 -24 57 -26 66 -13 8 11 9 11 4 -3 -6 -21 46 -53
70 -44 9 3 12 1 9 -4 -3 -6 5 -14 19 -20 14 -5 26 -15 26 -21 0 -7 8 -18 18
-26 9 -8 11 -12 5 -8 -19 9 -15 -16 5 -32 9 -8 11 -12 4 -8 -10 5 -11 0 -7
-22 13 -56 14 -57 33 -42 13 11 13 9 -2 -9 -19 -22 -19 -23 0 -38 10 -8 13
-13 6 -9 -9 5 -11 -1 -6 -22 3 -15 8 -40 11 -55 3 -16 10 -28 15 -28 5 0 7 -9
3 -19 -3 -11 -1 -22 4 -25 6 -4 7 -14 4 -23 -5 -12 -3 -14 7 -8 9 5 11 4 6 -3
-9 -15 15 -132 26 -126 5 3 5 10 2 16 -5 7 -2 8 5 4 9 -6 9 -12 -3 -25 -9 -10
-13 -21 -9 -25 4 -4 8 -13 8 -19 2 -22 16 -92 25 -117 8 -21 18 -83 20 -113 0
-5 3 -6 8 -4 4 3 8 -9 8 -26 1 -18 4 -43 7 -57 3 -14 6 -31 6 -38 1 -8 6 -10
14 -6 6 4 -4 -8 -23 -28 -50 -52 -60 -65 -53 -72 4 -3 2 -6 -3 -6 -6 0 -28
-24 -49 -52 -22 -29 -42 -55 -45 -58 -3 -3 -28 -34 -55 -70 -28 -35 -58 -73
-67 -84 -10 -10 -15 -24 -11 -29 3 -6 1 -7 -5 -3 -10 6 -35 -25 -29 -35 1 -2
0 -3 -2 -2 -2 1 -10 -5 -18 -13 -13 -12 -13 -17 -1 -32 11 -15 11 -16 -3 -5
-13 11 -20 8 -43 -18 -15 -17 -25 -36 -23 -44 3 -7 -1 -12 -8 -11 -8 0 -15 -3
-17 -8 -2 -5 -18 -24 -36 -42 -20 -20 -30 -38 -26 -45 4 -7 3 -9 -3 -6 -14 9
-37 -19 -27 -34 4 -7 3 -9 -4 -5 -6 3 -17 -3 -25 -15 -14 -20 -26 -21 -165
-24 -83 -1 -155 -6 -161 -9 -6 -4 -11 -4 -11 1 0 9 -335 7 -350 -2 -5 -3 -10
-3 -10 2 0 4 -61 8 -136 8 l-136 0 -16 27 c-9 15 -19 25 -24 22 -4 -3 -8 1 -8
8 0 8 -9 20 -20 28 -11 8 -20 20 -20 26 0 7 -3 14 -8 16 -4 2 -25 24 -46 50
-21 26 -42 46 -46 43 -5 -3 -12 0 -16 6 -4 8 -3 9 4 5 22 -13 12 13 -10 28
-12 9 -18 16 -13 16 6 0 3 6 -6 13 -8 7 -34 38 -57 69 -24 32 -55 71 -71 87
-16 16 -27 31 -25 34 2 2 -11 20 -30 40 -19 20 -31 37 -29 37 3 0 0 7 -7 15
-7 8 -17 12 -23 8 -6 -3 -7 -1 -3 5 4 7 -7 25 -24 42 -17 16 -28 30 -25 30 3
0 -10 21 -30 47 -21 28 -34 55 -32 65 4 12 1 16 -6 11 -9 -5 -9 -3 0 8 15 19
19 51 9 68 -6 10 -5 12 2 7 14 -8 27 35 19 64 -3 13 -1 18 6 13 6 -4 8 2 5 15
-4 14 -2 20 5 15 6 -4 8 2 5 15 -4 12 -1 22 4 22 6 0 4 8 -3 17 -8 9 -9 14 -3
10 21 -12 26 54 7 77 -17 20 -17 20 0 7 21 -17 21 -17 34 42 7 34 7 47 -1 47
-6 0 -4 5 4 10 8 5 11 10 6 10 -5 0 -3 7 4 15 7 8 9 15 5 15 -4 0 -2 7 5 15
10 12 10 18 -1 32 -8 9 -9 14 -3 10 13 -8 29 38 19 53 -4 6 -1 10 4 10 6 0 11
5 11 11 0 5 -6 7 -12 4 -7 -4 -6 -1 2 7 9 7 15 22 15 33 0 11 3 22 7 25 3 3 8
19 12 35 19 106 41 168 63 178 12 5 20 14 16 20 -3 6 -1 7 4 4 14 -9 95 27 86
37 -4 4 1 4 12 0 14 -6 17 -4 12 9 -4 11 -2 14 9 10 16 -6 99 30 128 56 10 9
19 15 20 13 2 -6 141 60 147 70 3 5 10 9 15 9 17 -1 63 23 58 31 -3 4 1 5 9 2
8 -3 21 1 28 8 8 7 19 13 24 14 27 2 74 27 68 37 -3 5 -1 7 5 3 13 -8 164 60
175 80 4 7 10 14 13 14 3 0 2 -5 -2 -12z m563 -3 c0 -8 -4 -12 -9 -9 -5 3 -6
10 -3 15 9 13 12 11 12 -6z m-846 -18 c-10 -9 -11 -8 -5 6 3 10 9 15 12 12 3
-3 0 -11 -7 -18z m89 19 c0 -2 -7 -7 -16 -10 -8 -3 -12 -2 -9 4 6 10 25 14 25
6z m976 -22 c1 -9 0 -13 -4 -10 -3 4 -7 14 -8 22 -1 9 0 13 4 10 3 -4 7 -14 8
-22z m89 16 c3 -6 -1 -7 -9 -4 -18 7 -21 14 -7 14 6 0 13 -4 16 -10z m85 4 c0
-8 -19 -13 -24 -6 -3 5 1 9 9 9 8 0 15 -2 15 -3z m-1917 -19 c-3 -9 -8 -14
-10 -11 -3 3 -2 9 2 15 9 16 15 13 8 -4z m507 -5 c0 -5 -2 -10 -4 -10 -3 0 -8
5 -11 10 -3 6 -1 10 4 10 6 0 11 -4 11 -10z m1114 2 c2 -4 -5 -9 -17 -9 -17
-2 -19 0 -7 7 18 12 18 12 24 2z m-59 -11 c3 -5 2 -12 -3 -15 -5 -3 -9 1 -9 9
0 17 3 19 12 6z m-1145 -7 c0 -8 -19 -13 -24 -6 -3 5 1 9 9 9 8 0 15 -2 15 -3z
m155 -4 c-3 -5 -12 -10 -18 -10 -7 0 -6 4 3 10 19 12 23 12 15 0z m952 -5 c0
-8 -4 -12 -9 -9 -4 3 -8 9 -8 15 0 5 4 9 8 9 5 0 9 -7 9 -15z m299 0 c-1 -8
-5 -17 -8 -21 -5 -4 -4 16 1 34 3 9 9 -1 7 -13z m119 -3 c-3 -3 -11 0 -18 7
-9 10 -8 11 6 5 10 -3 15 -9 12 -12z m-1760 -11 c-9 -8 -36 -10 -30 -2 2 4 11
8 20 8 8 0 13 -3 10 -6z m325 -1 c0 -5 -2 -10 -4 -10 -3 0 -8 5 -11 10 -3 6
-1 10 4 10 6 0 11 -4 11 -10z m1236 -5 c-1 -8 -5 -17 -8 -21 -5 -4 -4 16 1 34
3 9 9 -1 7 -13z m-1618 -20 c-3 -3 -9 2 -12 12 -6 14 -5 15 5 6 7 -7 10 -15 7
-18z m1397 5 c3 -5 1 -10 -4 -10 -6 0 -11 5 -11 10 0 6 2 10 4 10 3 0 8 -4 11
-10z m80 0 c3 -5 1 -10 -4 -10 -6 0 -11 5 -11 10 0 6 2 10 4 10 3 0 8 -4 11
-10z m45 0 c0 -5 -4 -10 -10 -10 -5 0 -10 5 -10 10 0 6 5 10 10 10 6 0 10 -4
10 -10z m50 4 c0 -8 -19 -13 -24 -6 -3 5 1 9 9 9 8 0 15 -2 15 -3z m268 -29
c-3 -3 -9 2 -12 12 -6 14 -5 15 5 6 7 -7 10 -15 7 -18z m-1703 6 c3 -5 2 -12
-3 -15 -5 -3 -9 1 -9 9 0 17 3 19 12 6z m45 5 c0 -3 -4 -8 -10 -11 -5 -3 -10
-1 -10 4 0 6 5 11 10 11 6 0 10 -2 10 -4z m1516 -22 c1 -9 0 -13 -4 -10 -3 4
-7 14 -8 22 -1 9 0 13 4 10 3 -4 7 -14 8 -22z m104 21 c0 -7 -30 -13 -34 -7
-3 4 4 9 15 9 10 1 19 0 19 -2z m-1880 -21 c0 -8 -19 -13 -24 -6 -3 5 1 9 9 9
8 0 15 -2 15 -3z m1480 2 c0 -3 -4 -8 -10 -11 -5 -3 -10 -1 -10 4 0 6 5 11 10
11 6 0 10 -2 10 -4z m-1545 -25 c3 -5 2 -12 -3 -15 -5 -3 -9 1 -9 9 0 17 3 19
12 6z m199 -3 c-3 -4 -11 -5 -19 -1 -21 7 -19 12 4 10 11 0 18 -5 15 -9z m86
8 c0 -3 -4 -8 -10 -11 -5 -3 -10 -1 -10 4 0 6 5 11 10 11 6 0 10 -2 10 -4z
m40 0 c0 -3 -4 -8 -10 -11 -5 -3 -10 -1 -10 4 0 6 5 11 10 11 6 0 10 -2 10 -4z
m1480 -6 c0 -5 -5 -10 -11 -10 -5 0 -7 5 -4 10 3 6 8 10 11 10 2 0 4 -4 4 -10z
m-419 -17 c13 -16 12 -17 -3 -4 -17 13 -22 21 -14 21 2 0 10 -8 17 -17z
m-1305 -8 c-1 -8 -5 -17 -8 -21 -5 -4 -4 16 1 34 3 9 9 -1 7 -13z m1624 5 c0
-5 -5 -10 -11 -10 -5 0 -7 5 -4 10 3 6 8 10 11 10 2 0 4 -4 4 -10z m35 0 c3
-5 1 -10 -4 -10 -6 0 -11 5 -11 10 0 6 2 10 4 10 3 0 8 -4 11 -10z m-1541 -18
c2 -4 -5 -9 -17 -9 -17 -2 -19 0 -7 7 18 12 18 12 24 2z m126 4 c0 -3 -4 -8
-10 -11 -5 -3 -10 -1 -10 4 0 6 5 11 10 11 6 0 10 -2 10 -4z m235 -5 c-9 -8
-36 -10 -30 -2 2 4 11 8 20 8 8 0 13 -3 10 -6z m1285 -1 c0 -5 -5 -10 -11 -10
-5 0 -7 5 -4 10 3 6 8 10 11 10 2 0 4 -4 4 -10z m96 -2 c3 -4 -1 -5 -10 -4 -8
1 -18 5 -22 8 -3 4 1 5 10 4 8 -1 18 -5 22 -8z m-1900 -23 c-1 -8 -5 -17 -8
-21 -5 -4 -4 16 1 34 3 9 9 -1 7 -13z m37 -30 c-7 -21 -12 -19 -10 4 0 11 5
18 9 15 4 -3 5 -11 1 -19z m1687 15 c0 -5 -5 -10 -11 -10 -5 0 -7 5 -4 10 3 6
8 10 11 10 2 0 4 -4 4 -10z m236 -16 c1 -9 0 -13 -4 -10 -3 4 -7 14 -8 22 -1
9 0 13 4 10 3 -4 7 -14 8 -22z m-1783 1 c-3 -9 -8 -14 -10 -11 -3 3 -2 9 2 15
9 16 15 13 8 -4z m-38 -5 c3 -5 1 -10 -4 -10 -6 0 -11 5 -11 10 0 6 2 10 4 10
3 0 8 -4 11 -10z m1489 2 c2 -4 -4 -8 -14 -8 -10 0 -16 4 -14 8 3 4 9 8 14 8
5 0 11 -4 14 -8z m249 -7 c4 -8 3 -16 -1 -19 -4 -3 -9 4 -9 15 -2 23 3 25 10
4z m-1957 -17 c3 -4 -1 -5 -10 -4 -8 1 -18 5 -22 8 -3 4 1 5 10 4 8 -1 18 -5
22 -8z m80 -3 c-1 -8 -5 -17 -8 -21 -5 -4 -4 16 1 34 3 9 9 -1 7 -13z m358 3
c-3 -4 -11 -5 -19 -1 -21 7 -19 12 4 10 11 0 18 -5 15 -9z m3771 -148 l7 -45
-31 40 c-35 46 -35 46 -19 117 l11 53 13 -60 c7 -33 15 -80 19 -105z m-4275
130 c8 -5 11 -10 5 -10 -5 0 -17 5 -25 10 -8 5 -10 10 -5 10 6 0 17 -5 25 -10z
m106 -22 c3 -4 -1 -5 -10 -4 -8 1 -18 5 -22 8 -3 4 1 5 10 4 8 -1 18 -5 22 -8z
m164 2 c0 -5 -2 -10 -4 -10 -3 0 -8 5 -11 10 -3 6 -1 10 4 10 6 0 11 -4 11
-10z m1757 -5 c0 -8 -4 -12 -9 -9 -5 3 -6 10 -3 15 9 13 12 11 12 -6z m119 3
c3 -4 -1 -5 -10 -4 -8 1 -18 5 -22 8 -3 4 1 5 10 4 8 -1 18 -5 22 -8z m-2241
-26 c-3 -3 -11 0 -18 7 -9 10 -8 11 6 5 10 -3 15 -9 12 -12z m300 8 c3 -5 1
-10 -4 -10 -6 0 -11 5 -11 10 0 6 2 10 4 10 3 0 8 -4 11 -10z m-2257 -62 c-16
-33 -26 -28 -17 10 5 20 9 42 10 47 0 6 4 -1 8 -15 5 -14 4 -33 -1 -42z m1224
-180 c-1 -5 3 -8 8 -8 6 0 10 -5 10 -11 0 -6 9 -24 21 -41 12 -16 20 -31 18
-33 -2 -2 -51 -35 -109 -74 -58 -38 -124 -84 -148 -100 -51 -37 -54 -37 -51
-8 2 12 -1 28 -5 36 -6 10 -5 12 2 7 7 -4 13 2 16 16 3 13 17 77 31 143 25
112 34 155 39 180 1 6 4 15 7 20 4 6 10 28 14 50 4 22 9 44 12 49 6 9 140
-214 135 -226z m812 224 c3 -5 -1 -9 -9 -9 -8 0 -12 4 -9 9 3 4 7 8 9 8 2 0 6
-4 9 -8z m66 4 c0 -3 -4 -8 -10 -11 -5 -3 -10 -1 -10 4 0 6 5 11 10 11 6 0 10
-2 10 -4z m1940 -6 c0 -5 -2 -10 -4 -10 -3 0 -8 5 -11 10 -3 6 -1 10 4 10 6 0
11 -4 11 -10z m35 0 c3 -5 1 -10 -4 -10 -6 0 -11 5 -11 10 0 6 2 10 4 10 3 0
8 -4 11 -10z m201 -5 c-1 -8 -5 -17 -8 -21 -5 -4 -4 16 1 34 3 9 9 -1 7 -13z
m941 -22 c6 -21 15 -56 18 -78 4 -22 12 -46 18 -52 5 -7 7 -13 4 -13 -3 0 -1
-17 4 -37 11 -42 16 -66 24 -103 3 -14 8 -36 11 -50 3 -14 7 -36 10 -50 3 -14
10 -45 15 -69 5 -24 8 -46 5 -48 -2 -3 -54 31 -116 74 -61 43 -114 76 -117 75
-4 -2 -10 3 -15 12 -5 9 -14 16 -20 16 -10 0 -58 46 -58 56 0 2 5 3 11 2 6 -2
16 6 22 17 7 11 14 22 17 25 3 3 11 16 18 29 8 13 22 38 32 55 75 132 90 159
90 167 0 23 16 5 27 -28z m-232 7 c3 -6 -1 -7 -9 -4 -18 7 -21 14 -7 14 6 0
13 -4 16 -10z m-2988 -15 c0 -8 -4 -12 -9 -9 -5 3 -6 10 -3 15 9 13 12 11 12
-6z m99 -7 c3 -4 -1 -5 -10 -4 -8 1 -18 5 -22 8 -3 4 1 5 10 4 8 -1 18 -5 22
-8z m44 -12 c0 -3 -4 -8 -10 -11 -5 -3 -10 -1 -10 4 0 6 5 11 10 11 6 0 10 -2
10 -4z m2013 -11 c4 -8 3 -16 -1 -19 -4 -3 -9 4 -9 15 -2 23 3 25 10 4z m44
-4 c0 -11 -5 -18 -9 -15 -4 3 -5 11 -1 19 7 21 12 19 10 -4z m39 4 c-1 -8 -5
-17 -8 -21 -5 -4 -4 16 1 34 3 9 9 -1 7 -13z m-2201 -14 c-9 -8 -36 -10 -30
-2 2 4 11 8 20 8 8 0 13 -3 10 -6z m165 -1 c0 -5 -2 -10 -4 -10 -3 0 -8 5 -11
10 -3 6 -1 10 4 10 6 0 11 -4 11 -10z m-267 -15 c-3 -9 -8 -14 -10 -11 -3 3
-2 9 2 15 9 16 15 13 8 -4z m2164 -10 c0 -8 -4 -12 -9 -9 -5 3 -6 10 -3 15 9
13 12 11 12 -6z m-2101 -17 c3 -4 -1 -5 -10 -4 -8 1 -18 5 -22 8 -3 4 1 5 10
4 8 -1 18 -5 22 -8z m60 0 c3 -4 -1 -5 -10 -4 -8 1 -18 5 -22 8 -3 4 1 5 10 4
8 -1 18 -5 22 -8z m104 2 c0 -5 -2 -10 -4 -10 -3 0 -8 5 -11 10 -3 6 -1 10 4
10 6 0 11 -4 11 -10z m40 0 c0 -5 -2 -10 -4 -10 -3 0 -8 5 -11 10 -3 6 -1 10
4 10 6 0 11 -4 11 -10z m2036 -16 c1 -9 0 -13 -4 -10 -3 4 -7 14 -8 22 -1 9 0
13 4 10 3 -4 7 -14 8 -22z m40 11 c-1 -8 -5 -17 -8 -21 -5 -4 -4 16 1 34 3 9
9 -1 7 -13z m-101 -14 c3 -5 2 -12 -3 -15 -5 -3 -9 1 -9 9 0 17 3 19 12 6z
m415 3 c0 -8 -19 -13 -24 -6 -3 5 1 9 9 9 8 0 15 -2 15 -3z m-2730 -24 c0 -5
-2 -10 -4 -10 -3 0 -8 5 -11 10 -3 6 -1 10 4 10 6 0 11 -4 11 -10z m300 0 c0
-5 -5 -10 -11 -10 -5 0 -7 5 -4 10 3 6 8 10 11 10 2 0 4 -4 4 -10z m40 0 c0
-5 -5 -10 -11 -10 -5 0 -7 5 -4 10 3 6 8 10 11 10 2 0 4 -4 4 -10z m2200 4 c0
-8 -19 -13 -24 -6 -3 5 1 9 9 9 8 0 15 -2 15 -3z m-2419 -21 c13 -16 12 -17
-3 -4 -10 7 -18 15 -18 17 0 8 8 3 21 -13z m-32 -7 c9 -11 9 -16 -1 -22 -7 -4
-10 -4 -6 1 4 4 3 14 -3 22 -6 7 -9 13 -6 13 2 0 10 -6 16 -14z m2367 -1 c-1
-8 -5 -17 -8 -21 -5 -4 -4 16 1 34 3 9 9 -1 7 -13z m-2280 -31 c1 -9 0 -13 -4
-10 -3 4 -7 14 -8 22 -1 9 0 13 4 10 3 -4 7 -14 8 -22z m44 22 c0 -3 -4 -8
-10 -11 -5 -3 -10 -1 -10 4 0 6 5 11 10 11 6 0 10 -2 10 -4z m120 -6 c0 -5 -2
-10 -4 -10 -3 0 -8 5 -11 10 -3 6 -1 10 4 10 6 0 11 -4 11 -10z m1915 0 c3 -5
1 -10 -4 -10 -6 0 -11 5 -11 10 0 6 2 10 4 10 3 0 8 -4 11 -10z m370 -20 c-3
-5 -12 -10 -18 -10 -7 0 -6 4 3 10 19 12 23 12 15 0z m-2408 -15 c0 -8 -4 -12
-9 -9 -5 3 -6 10 -3 15 9 13 12 11 12 -6z m-120 -10 c0 -8 -4 -12 -9 -9 -5 3
-6 10 -3 15 9 13 12 11 12 -6z m2283 5 c0 -5 -5 -10 -11 -10 -5 0 -7 5 -4 10
3 6 8 10 11 10 2 0 4 -4 4 -10z m122 -18 c3 -8 112 -73 193 -116 22 -12 42
-24 43 -29 2 -4 9 -4 15 0 6 3 -1 -9 -15 -28 -43 -58 -138 -199 -138 -205 0
-2 -9 -14 -20 -26 l-20 -22 0 25 c0 14 -6 31 -12 38 -10 11 -10 12 -1 7 9 -5
11 -2 7 8 -3 9 -9 16 -13 16 -4 0 -6 14 -3 30 2 17 0 30 -5 30 -5 0 -9 10 -8
23 1 12 -4 42 -11 66 -7 25 -11 47 -9 51 2 4 -2 15 -9 26 -8 10 -11 24 -9 31
7 17 -26 55 -40 46 -6 -3 -7 -1 -3 6 6 9 11 9 23 -1 14 -11 15 -10 9 10 -5 16
-3 22 7 22 9 0 17 -4 19 -8z m-2427 -39 c-4 -21 -8 -48 -9 -60 0 -13 -4 -23
-8 -23 -4 0 -7 -8 -6 -17 0 -10 -7 -40 -15 -66 -14 -45 -14 -47 1 -35 14 10
13 9 -1 -9 -10 -11 -19 -37 -20 -57 -1 -20 -5 -36 -9 -36 -4 0 -8 -15 -10 -34
-3 -33 -5 -31 -87 90 -48 71 -88 121 -95 118 -6 -4 4 9 23 27 19 18 42 34 50
36 9 1 21 10 28 19 7 10 13 14 13 10 0 -4 13 1 29 10 17 10 28 21 25 26 -3 4
1 6 8 3 7 -3 27 4 43 14 43 28 49 26 40 -16z m59 19 c3 -5 -1 -9 -9 -9 -8 0
-12 4 -9 9 3 4 7 8 9 8 2 0 6 -4 9 -8z m-221 -17 c-3 -9 -8 -14 -10 -11 -3 3
-2 9 2 15 9 16 15 13 8 -4z m2467 -25 c0 -5 -5 -10 -11 -10 -5 0 -7 5 -4 10 3
6 8 10 11 10 2 0 4 -4 4 -10z m-2284 -36 c1 -9 0 -13 -4 -10 -3 4 -7 14 -8 22
-1 9 0 13 4 10 3 -4 7 -14 8 -22z m69 16 c3 -6 -1 -7 -9 -4 -18 7 -21 14 -7
14 6 0 13 -4 16 -10z m135 -20 c0 -5 -2 -10 -4 -10 -3 0 -8 5 -11 10 -3 6 -1
10 4 10 6 0 11 -4 11 -10z m2080 6 c0 -3 -4 -8 -10 -11 -5 -3 -10 -1 -10 4 0
6 5 11 10 11 6 0 10 -2 10 -4z m35 -6 c3 -5 1 -10 -4 -10 -6 0 -11 5 -11 10 0
6 2 10 4 10 3 0 8 -4 11 -10z m-4105 -190 c29 -74 88 -209 132 -299 43 -90 78
-167 78 -171 0 -3 -10 -15 -22 -26 -28 -24 -122 -132 -126 -145 -7 -19 -25 -7
-86 56 -72 73 -117 146 -141 230 -23 77 -16 216 14 303 33 97 83 204 91 195 3
-4 30 -69 60 -143z m6040 68 c58 -125 79 -210 76 -315 -5 -146 -64 -264 -189
-373 l-38 -33 -32 39 c-18 21 -55 64 -83 95 l-51 55 73 150 c40 82 101 220
136 307 34 86 64 157 66 157 2 0 21 -37 42 -82z m-4155 54 c-3 -3 -11 0 -18 7
-9 10 -8 11 6 5 10 -3 15 -9 12 -12z m2725 14 c0 -3 -4 -8 -10 -11 -5 -3 -10
-1 -10 4 0 6 5 11 10 11 6 0 10 -2 10 -4z m-540 -26 c0 -5 -2 -10 -4 -10 -3 0
-8 5 -11 10 -3 6 -1 10 4 10 6 0 11 -4 11 -10z m35 0 c3 -5 1 -10 -4 -10 -6 0
-11 5 -11 10 0 6 2 10 4 10 3 0 8 -4 11 -10z m85 6 c0 -3 -4 -8 -10 -11 -5 -3
-10 -1 -10 4 0 6 5 11 10 11 6 0 10 -2 10 -4z m-2220 -10 c0 -2 -8 -10 -17
-17 -16 -13 -17 -12 -4 4 13 16 21 21 21 13z m2513 -11 c-3 -9 -8 -14 -10 -11
-3 3 -2 9 2 15 9 16 15 13 8 -4z m-2638 -5 c3 -5 1 -10 -4 -10 -6 0 -11 5 -11
10 0 6 2 10 4 10 3 0 8 -4 11 -10z m45 0 c0 -5 -4 -10 -10 -10 -5 0 -10 5 -10
10 0 6 5 10 10 10 6 0 10 -4 10 -10z m-100 -20 c0 -5 -2 -10 -4 -10 -3 0 -8 5
-11 10 -3 6 -1 10 4 10 6 0 11 -4 11 -10z m2170 0 c8 -5 11 -10 5 -10 -5 0
-17 5 -25 10 -8 5 -10 10 -5 10 6 0 17 -5 25 -10z m-2550 -14 c0 -2 -7 -7 -16
-10 -8 -3 -12 -2 -9 4 6 10 25 14 25 6z m2591 -13 c13 -16 12 -17 -3 -4 -17
13 -22 21 -14 21 2 0 10 -8 17 -17z m429 13 c0 -2 -7 -7 -16 -10 -8 -3 -12 -2
-9 4 6 10 25 14 25 6z m-360 -26 c0 -5 -2 -10 -4 -10 -3 0 -8 5 -11 10 -3 6
-1 10 4 10 6 0 11 -4 11 -10z m35 0 c3 -5 1 -10 -4 -10 -6 0 -11 5 -11 10 0 6
2 10 4 10 3 0 8 -4 11 -10z m-2121 -26 c3 -8 2 -12 -4 -9 -6 3 -10 10 -10 16
0 14 7 11 14 -7z m-194 -14 c0 -5 -5 -10 -11 -10 -5 0 -7 5 -4 10 3 6 8 10 11
10 2 0 4 -4 4 -10z m2315 0 c3 -5 1 -10 -4 -10 -6 0 -11 5 -11 10 0 6 2 10 4
10 3 0 8 -4 11 -10z m45 0 c0 -5 -2 -10 -4 -10 -3 0 -8 5 -11 10 -3 6 -1 10 4
10 6 0 11 -4 11 -10z m37 3 c-4 -3 -1 -13 6 -22 11 -14 10 -14 -5 -2 -16 12
-16 31 -1 31 4 0 3 -3 0 -7z m508 -3 c-3 -5 1 -10 9 -10 9 0 16 -4 16 -9 0 -5
9 -13 20 -16 11 -3 26 -12 32 -18 37 -35 139 -97 150 -91 6 4 8 3 5 -3 -7 -10
71 -69 86 -65 4 1 7 -2 7 -7 0 -5 24 -26 53 -47 28 -22 61 -47 72 -57 11 -10
32 -26 47 -35 33 -19 47 -50 53 -117 3 -27 8 -70 11 -95 10 -69 11 -115 4
-120 -3 -3 -28 -41 -55 -85 -27 -44 -53 -81 -57 -83 -4 -2 -8 -7 -8 -12 0 -11
-63 -106 -72 -109 -4 -1 -22 -7 -40 -12 -18 -6 -44 -12 -58 -15 -14 -2 -36 -7
-50 -10 -28 -7 -31 -8 -147 -25 -45 -7 -81 -15 -79 -18 2 -3 -13 -5 -35 -5
-21 1 -39 -1 -39 -6 0 -4 -11 -5 -25 -2 -14 2 -25 0 -25 -4 0 -5 -28 -10 -62
-11 -38 -1 -64 -7 -69 -15 -6 -8 -9 -1 -10 22 -1 19 -1 38 0 43 0 4 -2 7 -7 7
-4 0 -8 17 -9 38 -2 37 -9 89 -17 127 -3 11 -5 33 -5 48 -1 20 -5 26 -13 21
-9 -5 -9 -2 1 9 9 12 10 17 2 17 -7 0 -10 4 -7 9 3 5 1 31 -5 57 -5 27 -11 58
-13 69 -14 100 -19 125 -28 125 -5 0 -2 7 6 16 15 15 20 29 17 47 -1 5 3 6 8
3 5 -3 38 34 73 82 89 121 138 191 138 197 0 3 15 25 33 49 17 24 45 63 61 85
27 36 47 57 31 31z m-3408 -15 c0 -20 76 -125 86 -118 6 3 7 1 3 -5 -3 -6 14
-41 39 -77 46 -68 52 -76 142 -198 48 -66 56 -94 40 -137 -7 -20 -45 -231 -52
-295 -6 -50 -10 -73 -18 -110 -3 -12 -8 -47 -12 -79 l-8 -58 -61 8 c-33 4 -80
8 -102 9 -23 1 -46 5 -50 8 -9 5 -53 14 -114 22 -59 8 -104 15 -130 22 -14 4
-32 8 -40 9 -8 1 -43 9 -77 17 -35 8 -63 13 -63 9 0 -5 -44 61 -152 228 -28
43 -29 49 -22 120 7 86 8 94 19 175 5 33 8 65 7 72 -2 6 12 22 30 34 18 13 38
28 43 34 6 7 34 29 63 49 28 21 50 42 47 47 -4 5 1 6 9 3 9 -3 16 -2 16 4 0 5
8 12 18 16 9 3 82 50 161 105 133 92 178 114 178 86z m459 -10 c-1 -8 -5 -17
-8 -21 -5 -4 -4 16 1 34 3 9 9 -1 7 -13z m38 -13 c3 -5 -1 -9 -9 -9 -8 0 -12
4 -9 9 3 4 7 8 9 8 2 0 6 -4 9 -8z m2559 -17 c-7 -21 -12 -19 -10 4 0 11 5 18
9 15 4 -3 5 -11 1 -19z m-2493 -5 c0 -5 -5 -10 -11 -10 -5 0 -7 5 -4 10 3 6 8
10 11 10 2 0 4 -4 4 -10z m2206 -2 c3 -4 -1 -5 -10 -4 -8 1 -18 5 -22 8 -3 4
1 5 10 4 8 -1 18 -5 22 -8z m74 8 c0 -2 -7 -7 -16 -10 -8 -3 -12 -2 -9 4 6 10
25 14 25 6z m-2496 -24 c3 -5 -1 -9 -9 -9 -8 0 -12 4 -9 9 3 4 7 8 9 8 2 0 6
-4 9 -8z m271 -2 c3 -5 1 -10 -4 -10 -6 0 -11 5 -11 10 0 6 2 10 4 10 3 0 8
-4 11 -10z m-100 -9 c3 -5 2 -12 -3 -15 -5 -3 -9 1 -9 9 0 17 3 19 12 6z
m2345 -25 c0 -3 -4 -8 -10 -11 -5 -3 -10 -1 -10 4 0 6 5 11 10 11 6 0 10 -2
10 -4z m-2605 -25 c-9 -8 -36 -10 -30 -2 2 4 11 8 20 8 8 0 13 -3 10 -6z m198
-6 c4 -8 3 -16 -1 -19 -4 -3 -9 4 -9 15 -2 23 3 25 10 4z m107 11 c0 -3 -4 -8
-10 -11 -5 -3 -10 -1 -10 4 0 6 5 11 10 11 6 0 10 -2 10 -4z m2416 -22 c1 -9
0 -13 -4 -10 -3 4 -7 14 -8 22 -1 9 0 13 4 10 3 -4 7 -14 8 -22z m-2581 -3
c-9 -8 -36 -10 -30 -2 2 4 11 8 20 8 8 0 13 -3 10 -6z m2465 -1 c0 -5 -2 -10
-4 -10 -3 0 -8 5 -11 10 -3 6 -1 10 4 10 6 0 11 -4 11 -10z m-2300 -14 c0 -2
-7 -7 -16 -10 -8 -3 -12 -2 -9 4 6 10 25 14 25 6z m2250 0 c0 -2 -8 -10 -17
-17 -16 -13 -17 -12 -4 4 13 16 21 21 21 13z m207 -21 c0 -8 -4 -12 -9 -9 -5
3 -6 10 -3 15 9 13 12 11 12 -6z m-2677 -1 c0 -8 -19 -13 -24 -6 -3 5 1 9 9 9
8 0 15 -2 15 -3z m55 -3 c-9 -8 -36 -10 -30 -2 2 4 11 8 20 8 8 0 13 -3 10 -6z
m100 -1 c3 -5 1 -10 -4 -10 -6 0 -11 5 -11 10 0 6 2 10 4 10 3 0 8 -4 11 -10z
m2360 0 c3 -5 1 -10 -4 -10 -6 0 -11 5 -11 10 0 6 2 10 4 10 3 0 8 -4 11 -10z
m42 -12 c2 -17 0 -19 -7 -8 -5 8 -6 18 -4 22 8 12 10 10 11 -14z m79 -4 c1 -9
0 -13 -4 -10 -3 4 -7 14 -8 22 -1 9 0 13 4 10 3 -4 7 -14 8 -22z m139 -13 c3
-5 2 -12 -3 -15 -5 -3 -9 1 -9 9 0 17 3 19 12 6z m-2699 -27 c1 -9 0 -13 -4
-10 -3 4 -7 14 -8 22 -1 9 0 13 4 10 3 -4 7 -14 8 -22z m99 17 c-9 -8 -36 -10
-30 -2 2 4 11 8 20 8 8 0 13 -3 10 -6z m2340 -1 c3 -5 1 -10 -4 -10 -6 0 -11
5 -11 10 0 6 2 10 4 10 3 0 8 -4 11 -10z m185 0 c0 -5 -2 -10 -4 -10 -3 0 -8
5 -11 10 -3 6 -1 10 4 10 6 0 11 -4 11 -10z m-2730 -16 c0 -8 -19 -13 -24 -6
-3 5 1 9 9 9 8 0 15 -2 15 -3z m190 -18 c0 -3 -4 -8 -10 -11 -5 -3 -10 -1 -10
4 0 6 5 11 10 11 6 0 10 -2 10 -4z m2456 -8 c3 -4 -1 -5 -10 -4 -8 1 -18 5
-22 8 -3 4 1 5 10 4 8 -1 18 -5 22 -8z m64 6 c0 -8 -19 -13 -24 -6 -3 5 1 9 9
9 8 0 15 -2 15 -3z m-2424 -30 c1 -9 0 -13 -4 -10 -3 4 -7 14 -8 22 -1 9 0 13
4 10 3 -4 7 -14 8 -22z m-336 12 c0 -2 -7 -7 -16 -10 -8 -3 -12 -2 -9 4 6 10
25 14 25 6z m117 -15 c0 -11 -5 -18 -9 -15 -4 3 -5 11 -1 19 7 21 12 19 10 -4z
m2374 -4 c-10 -9 -11 -8 -5 6 3 10 9 15 12 12 3 -3 0 -11 -7 -18z m83 7 c3 -8
2 -12 -4 -9 -6 3 -10 10 -10 16 0 14 7 11 14 -7z m160 0 c3 -8 2 -12 -4 -9 -6
3 -10 10 -10 16 0 14 7 11 14 -7z m51 -33 c-9 -8 -36 -10 -30 -2 2 4 11 8 20
8 8 0 13 -3 10 -6z m-2669 -26 c-1 -8 -5 -17 -8 -21 -5 -4 -4 16 1 34 3 9 9
-1 7 -13z m2524 11 c0 -3 -4 -8 -10 -11 -5 -3 -10 -1 -10 4 0 6 5 11 10 11 6
0 10 -2 10 -4z m-2307 -21 c-3 -9 -8 -14 -10 -11 -3 3 -2 9 2 15 9 16 15 13 8
-4z m-137 -10 c-1 -8 -5 -17 -8 -21 -5 -4 -4 16 1 34 3 9 9 -1 7 -13z m41 -4
c0 -11 -5 -18 -9 -15 -4 3 -5 11 -1 19 7 21 12 19 10 -4z m58 9 c3 -5 1 -10
-4 -10 -6 0 -11 5 -11 10 0 6 2 10 4 10 3 0 8 -4 11 -10z m-125 -16 c0 -8 -19
-13 -24 -6 -3 5 1 9 9 9 8 0 15 -2 15 -3z m2401 -31 c13 -16 12 -17 -3 -4 -17
13 -22 21 -14 21 2 0 10 -8 17 -17z m93 9 c3 -5 -1 -9 -9 -9 -8 0 -12 4 -9 9
3 4 7 8 9 8 2 0 6 -4 9 -8z m-2304 -22 c0 -5 -5 -10 -11 -10 -5 0 -7 5 -4 10
3 6 8 10 11 10 2 0 4 -4 4 -10z m2356 -5 c-1 -8 -5 -17 -8 -21 -5 -4 -4 16 1
34 3 9 9 -1 7 -13z m-219 -20 c0 -8 -4 -12 -9 -9 -5 3 -6 10 -3 15 9 13 12 11
12 -6z m37 7 c3 -5 -1 -9 -9 -9 -8 0 -12 4 -9 9 3 4 7 8 9 8 2 0 6 -4 9 -8z
m-2338 -24 c3 -4 -1 -5 -10 -4 -8 1 -18 5 -22 8 -3 4 1 5 10 4 8 -1 18 -5 22
-8z m79 2 c3 -5 1 -10 -4 -10 -6 0 -11 5 -11 10 0 6 2 10 4 10 3 0 8 -4 11
-10z m85 0 c0 -5 -5 -10 -11 -10 -5 0 -7 5 -4 10 3 6 8 10 11 10 2 0 4 -4 4
-10z m2240 0 c0 -5 -2 -10 -4 -10 -3 0 -8 5 -11 10 -3 6 -1 10 4 10 6 0 11 -4
11 -10z m155 1 c3 -5 2 -12 -3 -15 -5 -3 -9 1 -9 9 0 17 3 19 12 6z m-2630
-21 c-3 -5 -12 -10 -18 -10 -7 0 -6 4 3 10 19 12 23 12 15 0z m2575 4 c0 -8
-19 -13 -24 -6 -3 5 1 9 9 9 8 0 15 -2 15 -3z m-2484 -26 c3 -4 -1 -5 -10 -4
-8 1 -18 5 -22 8 -3 4 1 5 10 4 8 -1 18 -5 22 -8z m104 2 c0 -5 -2 -10 -4 -10
-3 0 -8 5 -11 10 -3 6 -1 10 4 10 6 0 11 -4 11 -10z m40 0 c0 -5 -2 -10 -4
-10 -3 0 -8 5 -11 10 -3 6 -1 10 4 10 6 0 11 -4 11 -10z m35 0 c3 -5 1 -10 -4
-10 -6 0 -11 5 -11 10 0 6 2 10 4 10 3 0 8 -4 11 -10z m2125 0 c0 -5 -2 -10
-4 -10 -3 0 -8 5 -11 10 -3 6 -1 10 4 10 6 0 11 -4 11 -10z m80 0 c0 -5 -2
-10 -4 -10 -3 0 -8 5 -11 10 -3 6 -1 10 4 10 6 0 11 -4 11 -10z m76 -25 c-1
-8 -5 -17 -8 -21 -5 -4 -4 16 1 34 3 9 9 -1 7 -13z m-2536 -15 c0 -5 -2 -10
-4 -10 -3 0 -8 5 -11 10 -3 6 -1 10 4 10 6 0 11 -4 11 -10z m220 0 c0 -5 -5
-10 -11 -10 -5 0 -7 5 -4 10 3 6 8 10 11 10 2 0 4 -4 4 -10z m40 6 c0 -3 -4
-8 -10 -11 -5 -3 -10 -1 -10 4 0 6 5 11 10 11 6 0 10 -2 10 -4z m-163 -41 c0
-8 -4 -12 -9 -9 -5 3 -6 10 -3 15 9 13 12 11 12 -6z m78 -4 c3 -5 2 -12 -3
-15 -5 -3 -9 1 -9 9 0 17 3 19 12 6z m40 -1 c3 -5 1 -10 -4 -10 -6 0 -11 5
-11 10 0 6 2 10 4 10 3 0 8 -4 11 -10z m2245 0 c0 -5 -2 -10 -4 -10 -3 0 -8 5
-11 10 -3 6 -1 10 4 10 6 0 11 -4 11 -10z m-2462 -45 c-3 -3 -9 2 -12 12 -6
14 -5 15 5 6 7 -7 10 -15 7 -18z m99 0 c0 -8 -4 -12 -9 -9 -5 3 -6 10 -3 15 9
13 12 11 12 -6z m98 6 c-9 -8 -36 -10 -30 -2 2 4 11 8 20 8 8 0 13 -3 10 -6z
m180 -1 c3 -5 1 -10 -4 -10 -6 0 -11 5 -11 10 0 6 2 10 4 10 3 0 8 -4 11 -10z
m2161 -2 c3 -4 -1 -5 -10 -4 -8 1 -18 5 -22 8 -3 4 1 5 10 4 8 -1 18 -5 22 -8z
m-300 -13 c-1 -8 -5 -17 -8 -21 -5 -4 -4 16 1 34 3 9 9 -1 7 -13z m225 -8 c-6
-8 -7 -18 -3 -22 4 -5 1 -5 -6 -1 -10 6 -10 11 -1 22 6 8 14 14 16 14 3 0 0
-6 -6 -13z m-2326 -16 c-9 -8 -36 -10 -30 -2 2 4 11 8 20 8 8 0 13 -3 10 -6z
m245 5 c0 -3 -4 -8 -10 -11 -5 -3 -10 -1 -10 4 0 6 5 11 10 11 6 0 10 -2 10
-4z m1800 -6 c0 -5 -5 -10 -11 -10 -5 0 -7 5 -4 10 3 6 8 10 11 10 2 0 4 -4 4
-10z m-1965 -40 c3 -5 1 -10 -4 -10 -6 0 -11 5 -11 10 0 6 2 10 4 10 3 0 8 -4
11 -10z m2085 0 c0 -5 -5 -10 -11 -10 -5 0 -7 5 -4 10 3 6 8 10 11 10 2 0 4
-4 4 -10z m40 4 c0 -8 -19 -13 -24 -6 -3 5 1 9 9 9 8 0 15 -2 15 -3z m116 -20
c1 -9 0 -13 -4 -10 -3 4 -7 14 -8 22 -1 9 0 13 4 10 3 -4 7 -14 8 -22z m-2021
7 c3 -5 2 -12 -3 -15 -5 -3 -9 1 -9 9 0 17 3 19 12 6z m3489 -77 c-37 -20 -41
-18 -47 22 -10 63 2 72 40 29 l33 -38 -26 -13z m-5238 59 c14 -19 19 -84 7
-82 -5 0 -25 8 -47 18 l-38 17 27 32 c31 37 33 38 51 15z m1311 -18 c0 -8 -4
-12 -9 -9 -5 3 -6 10 -3 15 9 13 12 11 12 -6z m2298 5 c3 -5 1 -10 -4 -10 -6
0 -11 5 -11 10 0 6 2 10 4 10 3 0 8 -4 11 -10z m129 2 c3 -5 -1 -9 -9 -9 -8 0
-12 4 -9 9 3 4 7 8 9 8 2 0 6 -4 9 -8z m-2467 -17 c0 -8 -4 -12 -9 -9 -5 3 -6
10 -3 15 9 13 12 11 12 -6z m316 0 c-3 -9 -8 -14 -10 -11 -3 3 -2 9 2 15 9 16
15 13 8 -4z m82 6 c3 -5 2 -12 -3 -15 -5 -3 -9 1 -9 9 0 17 3 19 12 6z m-25
-7 c0 -8 -19 -13 -24 -6 -3 5 1 9 9 9 8 0 15 -2 15 -3z m1876 -6 c3 -4 -1 -5
-10 -4 -8 1 -18 5 -22 8 -3 4 1 5 10 4 8 -1 18 -5 22 -8z m68 -4 c3 -8 2 -12
-4 -9 -6 3 -10 10 -10 16 0 14 7 11 14 -7z m102 1 c-1 -8 -5 -17 -8 -21 -5 -4
-4 16 1 34 3 9 9 -1 7 -13z m80 0 c-1 -8 -5 -17 -8 -21 -5 -4 -4 16 1 34 3 9
9 -1 7 -13z m184 11 c0 -3 -4 -8 -10 -11 -5 -3 -10 -1 -10 4 0 6 5 11 10 11 6
0 10 -2 10 -4z m-2485 -31 c6 -1 15 3 22 7 6 5 14 5 18 -2 4 -6 1 -9 -6 -8
-24 6 -18 -18 16 -55 19 -21 35 -41 35 -45 0 -4 14 -21 30 -39 17 -18 30 -37
30 -42 0 -6 9 -16 20 -23 11 -7 20 -18 20 -25 0 -7 3 -13 8 -13 4 0 20 -18 37
-40 18 -25 35 -38 44 -35 10 4 11 2 3 -8 -7 -8 -30 -12 -64 -11 -29 2 -53 3
-53 4 0 1 -73 8 -155 14 -25 2 -48 4 -52 5 -7 1 -3 67 6 91 3 8 7 35 10 60 2
25 8 69 12 97 5 39 3 57 -7 70 -12 15 -12 16 1 8 8 -6 20 -10 25 -10z m238
-10 c-3 -9 -8 -14 -10 -11 -3 3 -2 9 2 15 9 16 15 13 8 -4z m1697 -1 c0 -8
-19 -13 -24 -6 -3 5 1 9 9 9 8 0 15 -2 15 -3z m27 -9 c0 -8 -4 -12 -9 -9 -5 3
-6 10 -3 15 9 13 12 11 12 -6z m303 -42 c0 -19 5 -33 13 -34 9 0 9 -2 -1 -6
-6 -2 -10 -8 -7 -12 4 -8 9 -33 21 -121 12 -88 12 -101 0 -92 -6 5 -22 8 -36
7 -14 -1 -47 -4 -75 -5 -27 -2 -55 -7 -62 -12 -6 -5 -14 -5 -17 1 -4 6 -12 8
-19 6 -30 -10 -75 -12 -88 -4 -10 6 -11 9 -1 9 6 0 12 5 12 10 0 6 10 21 23
33 28 27 166 199 167 209 1 4 13 20 28 36 30 33 42 26 42 -25z m-2305 27 c3
-5 1 -10 -4 -10 -6 0 -11 5 -11 10 0 6 2 10 4 10 3 0 8 -4 11 -10z m179 -2
c-3 -4 -11 -5 -19 -1 -21 7 -19 12 4 10 11 0 18 -5 15 -9z m2042 -14 c1 -9 0
-13 -4 -10 -3 4 -7 14 -8 22 -1 9 0 13 4 10 3 -4 7 -14 8 -22z m-2320 -6 c3
-4 -1 -5 -10 -4 -8 1 -18 5 -22 8 -3 4 1 5 10 4 8 -1 18 -5 22 -8z m344 2 c0
-5 -5 -10 -11 -10 -5 0 -7 5 -4 10 3 6 8 10 11 10 2 0 4 -4 4 -10z m40 6 c0
-3 -4 -8 -10 -11 -5 -3 -10 -1 -10 4 0 6 5 11 10 11 6 0 10 -2 10 -4z m2234
-4 c3 -5 -1 -9 -9 -9 -8 0 -12 4 -9 9 3 4 7 8 9 8 2 0 6 -4 9 -8z m-2337 -17
c0 -8 -4 -12 -9 -9 -5 3 -6 10 -3 15 9 13 12 11 12 -6z m198 -5 c3 -5 1 -10
-4 -10 -6 0 -11 5 -11 10 0 6 2 10 4 10 3 0 8 -4 11 -10z m3881 -27 c-11 -11
-19 6 -11 24 8 17 8 17 12 0 3 -10 2 -21 -1 -24z m-4261 7 c3 -5 1 -10 -4 -10
-6 0 -11 5 -11 10 0 6 2 10 4 10 3 0 8 -4 11 -10z m240 -8 c-3 -3 -11 0 -18 7
-9 10 -8 11 6 5 10 -3 15 -9 12 -12z m1919 10 c3 -5 -1 -9 -9 -9 -8 0 -12 4
-9 9 3 4 7 8 9 8 2 0 6 -4 9 -8z m366 -2 c0 -5 -5 -10 -11 -10 -5 0 -7 5 -4
10 3 6 8 10 11 10 2 0 4 -4 4 -10z m-2220 -20 c0 -5 -2 -10 -4 -10 -3 0 -8 5
-11 10 -3 6 -1 10 4 10 6 0 11 -4 11 -10z m1675 0 c3 -5 1 -10 -4 -10 -6 0
-11 5 -11 10 0 6 2 10 4 10 3 0 8 -4 11 -10z m-1675 -34 c0 -3 -4 -8 -10 -11
-5 -3 -10 -1 -10 4 0 6 5 11 10 11 6 0 10 -2 10 -4z m1640 -6 c0 -5 -5 -10
-11 -10 -5 0 -7 5 -4 10 3 6 8 10 11 10 2 0 4 -4 4 -10z m35 0 c3 -5 1 -10 -4
-10 -6 0 -11 5 -11 10 0 6 2 10 4 10 3 0 8 -4 11 -10z m125 6 c0 -3 -4 -8 -10
-11 -5 -3 -10 -1 -10 4 0 6 5 11 10 11 6 0 10 -2 10 -4z m-1884 -42 c1 -9 0
-13 -4 -10 -3 4 -7 14 -8 22 -1 9 0 13 4 10 3 -4 7 -14 8 -22z m2219 17 c3 -5
2 -12 -3 -15 -5 -3 -9 1 -9 9 0 17 3 19 12 6z m-517 -46 c-3 -3 -9 2 -12 12
-6 14 -5 15 5 6 7 -7 10 -15 7 -18z m-1367 -2 c13 -16 12 -17 -3 -4 -17 13
-22 21 -14 21 2 0 10 -8 17 -17z m1409 7 c0 -5 -2 -10 -4 -10 -3 0 -8 5 -11
10 -3 6 -1 10 4 10 6 0 11 -4 11 -10z m45 0 c3 -6 -1 -7 -9 -4 -18 7 -21 14
-7 14 6 0 13 -4 16 -10z m-1701 -18 c3 -5 -1 -9 -9 -9 -8 0 -12 4 -9 9 3 4 7
8 9 8 2 0 6 -4 9 -8z m1751 -2 c3 -5 1 -10 -4 -10 -6 0 -11 5 -11 10 0 6 2 10
4 10 3 0 8 -4 11 -10z m-3689 -14 c51 -24 98 -45 146 -63 l47 -18 5 -250 c6
-248 9 -300 21 -382 3 -24 3 -43 0 -43 -14 0 -122 90 -171 142 -136 144 -184
310 -139 483 15 58 50 145 58 145 2 0 17 -6 33 -14z m5637 -23 c99 -231 47
-452 -148 -628 -97 -87 -94 -87 -89 -3 3 40 7 91 9 113 2 22 4 138 4 258 1
166 4 217 14 217 6 0 50 18 97 39 47 22 88 39 91 40 3 1 13 -16 22 -36z
m-2046 12 c0 -8 -4 -12 -9 -9 -5 3 -6 10 -3 15 9 13 12 11 12 -6z m-1657 -11
c0 -8 -19 -13 -24 -6 -3 5 1 9 9 9 8 0 15 -2 15 -3z m55 -3 c-9 -8 -36 -10
-30 -2 2 4 11 8 20 8 8 0 13 -3 10 -6z m65 -1 c0 -5 -5 -10 -11 -10 -5 0 -7 5
-4 10 3 6 8 10 11 10 2 0 4 -4 4 -10z m1335 0 c3 -5 1 -10 -4 -10 -6 0 -11 5
-11 10 0 6 2 10 4 10 3 0 8 -4 11 -10z m-1202 -15 c-3 -9 -8 -14 -10 -11 -3 3
-2 9 2 15 9 16 15 13 8 -4z m-38 -5 c3 -5 1 -10 -4 -10 -6 0 -11 5 -11 10 0 6
2 10 4 10 3 0 8 -4 11 -10z m1465 -14 c0 -3 -4 -8 -10 -11 -5 -3 -10 -1 -10 4
0 6 5 11 10 11 6 0 10 -2 10 -4z m-1639 -29 c-6 -8 -7 -18 -3 -22 4 -5 1 -5
-6 -1 -10 6 -10 11 -1 22 6 8 14 14 16 14 3 0 0 -6 -6 -13z m1454 -5 c-3 -3
-11 0 -18 7 -9 10 -8 11 6 5 10 -3 15 -9 12 -12z m-2155 -32 c0 -5 -5 -10 -11
-10 -5 0 -7 5 -4 10 3 6 8 10 11 10 2 0 4 -4 4 -10z m856 -5 c-1 -8 -5 -17 -8
-21 -5 -4 -4 16 1 34 3 9 9 -1 7 -13z m41 -4 c0 -11 -5 -18 -9 -15 -4 3 -5 11
-1 19 7 21 12 19 10 -4z m63 15 c0 -3 -4 -8 -10 -11 -5 -3 -10 -1 -10 4 0 6 5
11 10 11 6 0 10 -2 10 -4z m40 -6 c0 -5 -4 -10 -10 -10 -5 0 -10 5 -10 10 0 6
5 10 10 10 6 0 10 -4 10 -10z m237 -5 c0 -8 -4 -12 -9 -9 -5 3 -6 10 -3 15 9
13 12 11 12 -6z m920 0 c0 -8 -4 -12 -9 -9 -5 3 -6 10 -3 15 9 13 12 11 12 -6z
m-1362 -14 c-9 -8 -36 -10 -30 -2 2 4 11 8 20 8 8 0 13 -3 10 -6z m1100 -1 c3
-5 1 -10 -4 -10 -6 0 -11 5 -11 10 0 6 2 10 4 10 3 0 8 -4 11 -10z m321 -2 c3
-4 -1 -5 -10 -4 -8 1 -18 5 -22 8 -3 4 1 5 10 4 8 -1 18 -5 22 -8z m78 4 c3
-5 -1 -9 -9 -9 -8 0 -12 4 -9 9 3 4 7 8 9 8 2 0 6 -4 9 -8z m-493 -19 c13 -16
12 -17 -3 -4 -10 7 -18 15 -18 17 0 8 8 3 21 -13z m-791 1 c0 -8 -19 -13 -24
-6 -3 5 1 9 9 9 8 0 15 -2 15 -3z m225 -4 c3 -5 1 -10 -4 -10 -6 0 -11 5 -11
10 0 6 2 10 4 10 3 0 8 -4 11 -10z m135 6 c0 -2 -8 -10 -17 -17 -16 -13 -17
-12 -4 4 13 16 21 21 21 13z m70 -10 c-7 -7 -13 -7 -20 0 -6 6 -3 10 10 10 13
0 16 -4 10 -10z m736 -1 c-1 -8 -5 -17 -8 -21 -5 -4 -4 16 1 34 3 9 9 -1 7
-13z m204 5 c0 -5 -5 -10 -11 -10 -5 0 -7 5 -4 10 3 6 8 10 11 10 2 0 4 -4 4
-10z m1474 -146 c-2 -171 -11 -325 -30 -469 -13 -105 -17 -125 -28 -133 -23
-18 -271 -111 -381 -143 -95 -28 -337 -89 -352 -89 -21 0 -15 33 10 60 46 51
224 257 272 315 27 33 52 62 55 65 3 3 28 34 55 70 28 36 52 67 55 70 9 8 212
280 246 330 30 44 69 73 89 67 6 -2 9 -58 9 -143z m-4588 94 c40 -60 196 -272
204 -278 3 -3 21 -26 40 -52 18 -27 37 -48 42 -48 4 0 8 -5 8 -11 0 -11 130
-172 246 -305 11 -12 40 -46 65 -75 26 -30 63 -71 83 -92 39 -41 48 -78 19
-72 -10 2 -40 9 -68 15 -27 6 -57 13 -66 15 -101 21 -367 104 -509 160 -73 29
-67 12 -94 240 -19 152 -32 420 -27 533 2 25 29 11 57 -30z m1529 33 c-9 -8
-36 -10 -30 -2 2 4 11 8 20 8 8 0 13 -3 10 -6z m105 -1 c0 -5 -5 -10 -11 -10
-5 0 -7 5 -4 10 3 6 8 10 11 10 2 0 4 -4 4 -10z m1000 0 c0 -5 -2 -10 -4 -10
-3 0 -8 5 -11 10 -3 6 -1 10 4 10 6 0 11 -4 11 -10z m35 0 c3 -5 1 -10 -4 -10
-6 0 -11 5 -11 10 0 6 2 10 4 10 3 0 8 -4 11 -10z m45 0 c0 -5 -2 -10 -4 -10
-3 0 -8 5 -11 10 -3 6 -1 10 4 10 6 0 11 -4 11 -10z m80 6 c0 -3 -4 -8 -10
-11 -5 -3 -10 -1 -10 4 0 6 5 11 10 11 6 0 10 -2 10 -4z m34 -4 c3 -5 -1 -9
-9 -9 -8 0 -12 4 -9 9 3 4 7 8 9 8 2 0 6 -4 9 -8z m-419 -11 c3 -5 2 -12 -3
-15 -5 -3 -9 1 -9 9 0 17 3 19 12 6z m-1050 -11 c3 -6 -1 -7 -9 -4 -18 7 -21
14 -7 14 6 0 13 -4 16 -10z m311 -16 c1 -9 0 -13 -4 -10 -3 4 -7 14 -8 22 -1
9 0 13 4 10 3 -4 7 -14 8 -22z m77 11 c4 -8 3 -16 -1 -19 -4 -3 -9 4 -9 15 -2
23 3 25 10 4z m187 11 c0 -3 -4 -8 -10 -11 -5 -3 -10 -1 -10 4 0 6 5 11 10 11
6 0 10 -2 10 -4z m40 -6 c0 -5 -4 -10 -10 -10 -5 0 -10 5 -10 10 0 6 5 10 10
10 6 0 10 -4 10 -10z m200 0 c0 -5 -2 -10 -4 -10 -3 0 -8 5 -11 10 -3 6 -1 10
4 10 6 0 11 -4 11 -10z m200 0 c0 -5 -5 -10 -11 -10 -5 0 -7 5 -4 10 3 6 8 10
11 10 2 0 4 -4 4 -10z m74 -6 c3 -8 2 -12 -4 -9 -6 3 -10 10 -10 16 0 14 7 11
14 -7z m-614 -8 c0 -3 -4 -8 -10 -11 -5 -3 -10 -1 -10 4 0 6 5 11 10 11 6 0
10 -2 10 -4z m880 -6 c0 -5 -5 -10 -11 -10 -5 0 -7 5 -4 10 3 6 8 10 11 10 2
0 4 -4 4 -10z m196 -16 c1 -9 0 -13 -4 -10 -3 4 -7 14 -8 22 -1 9 0 13 4 10 3
-4 7 -14 8 -22z m80 14 c3 -4 -1 -5 -10 -4 -8 1 -18 5 -22 8 -3 4 1 5 10 4 8
-1 18 -5 22 -8z m261 -3 c0 -8 -4 -12 -9 -9 -5 3 -6 10 -3 15 9 13 12 11 12
-6z m488 5 c3 -6 -1 -7 -9 -4 -18 7 -21 14 -7 14 6 0 13 -4 16 -10z m-2644
-17 c13 -16 12 -17 -3 -4 -10 7 -18 15 -18 17 0 8 8 3 21 -13z m373 -1 c3 -5
-1 -9 -9 -9 -8 0 -12 4 -9 9 3 4 7 8 9 8 2 0 6 -4 9 -8z m506 4 c0 -2 -7 -7
-16 -10 -8 -3 -12 -2 -9 4 6 10 25 14 25 6z m49 -10 c9 -11 9 -16 -1 -22 -7
-4 -10 -4 -6 1 4 4 3 14 -3 22 -6 7 -9 13 -6 13 2 0 10 -6 16 -14z m71 4 c0
-5 -2 -10 -4 -10 -3 0 -8 5 -11 10 -3 6 -1 10 4 10 6 0 11 -4 11 -10z m191 -7
c13 -16 12 -17 -3 -4 -17 13 -22 21 -14 21 2 0 10 -8 17 -17z m306 -2 c0 -11
-5 -18 -9 -15 -4 3 -5 11 -1 19 7 21 12 19 10 -4z m448 9 c-3 -5 -12 -10 -18
-10 -7 0 -6 4 3 10 19 12 23 12 15 0z m305 6 c0 -2 -8 -10 -17 -17 -16 -13
-17 -12 -4 4 13 16 21 21 21 13z m-2015 -15 c3 -5 2 -12 -3 -15 -5 -3 -9 1 -9
9 0 17 3 19 12 6z m1502 -6 c0 -8 -4 -12 -9 -9 -5 3 -6 10 -3 15 9 13 12 11
12 -6z m-1297 -5 c0 -5 -5 -10 -11 -10 -5 0 -7 5 -4 10 3 6 8 10 11 10 2 0 4
-4 4 -10z m176 -5 c-1 -8 -5 -17 -8 -21 -5 -4 -4 16 1 34 3 9 9 -1 7 -13z m40
0 c-1 -8 -5 -17 -8 -21 -5 -4 -4 16 1 34 3 9 9 -1 7 -13z m124 5 c0 -5 -2 -10
-4 -10 -3 0 -8 5 -11 10 -3 6 -1 10 4 10 6 0 11 -4 11 -10z m195 0 c3 -5 1
-10 -4 -10 -6 0 -11 5 -11 10 0 6 2 10 4 10 3 0 8 -4 11 -10z m120 0 c3 -5 1
-10 -4 -10 -6 0 -11 5 -11 10 0 6 2 10 4 10 3 0 8 -4 11 -10z m205 0 c0 -5 -2
-10 -4 -10 -3 0 -8 5 -11 10 -3 6 -1 10 4 10 6 0 11 -4 11 -10z m160 0 c0 -5
-5 -10 -11 -10 -5 0 -7 5 -4 10 3 6 8 10 11 10 2 0 4 -4 4 -10z m400 4 c0 -8
-19 -13 -24 -6 -3 5 1 9 9 9 8 0 15 -2 15 -3z m-2458 -18 c25 -1 44 -4 41 -8
-2 -5 6 -8 19 -9 13 0 34 -3 48 -5 36 -6 91 -12 123 -13 l28 -1 -6 -92 c-4
-51 -9 -96 -11 -100 -2 -3 0 -10 6 -13 7 -5 8 -11 1 -19 -6 -6 -10 -21 -9 -31
1 -56 -7 -117 -16 -122 -6 -3 -8 -3 -4 1 9 11 -33 57 -45 49 -6 -3 -7 -1 -3 6
6 9 -13 36 -109 147 -30 35 -45 55 -55 73 -6 12 -15 19 -21 16 -5 -4 -8 -2 -7
3 4 12 -61 102 -73 102 -6 0 -8 4 -5 9 4 5 0 12 -6 15 -7 3 3 3 22 -1 19 -4
56 -7 82 -7z m1471 -1 c-3 -9 -8 -14 -10 -11 -3 3 -2 9 2 15 9 16 15 13 8 -4z
m2138 1 c-4 -6 -28 -36 -52 -66 -24 -31 -55 -70 -69 -88 -14 -18 -33 -43 -43
-55 -11 -12 -49 -59 -85 -104 -37 -46 -70 -83 -73 -83 -3 0 -7 21 -8 48 -1 26
-4 67 -6 92 -2 25 -7 84 -11 133 l-7 87 33 0 c35 0 154 18 180 27 8 3 37 6 63
8 27 2 51 5 53 7 10 10 33 4 25 -6z m-2731 0 c0 -3 -4 -8 -10 -11 -5 -3 -10
-1 -10 4 0 6 5 11 10 11 6 0 10 -2 10 -4z m875 -5 c3 -5 2 -12 -3 -15 -5 -3
-9 1 -9 9 0 17 3 19 12 6z m85 3 c0 -8 -19 -13 -24 -6 -3 5 1 9 9 9 8 0 15 -2
15 -3z m336 -9 c-1 -8 -5 -17 -8 -21 -5 -4 -4 16 1 34 3 9 9 -1 7 -13z m319 5
c3 -5 1 -10 -4 -10 -6 0 -11 5 -11 10 0 6 2 10 4 10 3 0 8 -4 11 -10z m-795
-20 c0 -5 -5 -10 -11 -10 -5 0 -7 5 -4 10 3 6 8 10 11 10 2 0 4 -4 4 -10z
m220 -5 c0 -2 -9 -3 -19 -2 -11 0 -18 5 -15 9 4 6 34 0 34 -7z m335 6 c-9 -8
-36 -10 -30 -2 2 4 11 8 20 8 8 0 13 -3 10 -6z m-1817 -26 c-3 -3 -9 2 -12 12
-6 14 -5 15 5 6 7 -7 10 -15 7 -18z m793 -8 c-10 -9 -11 -8 -5 6 3 10 9 15 12
12 3 -3 0 -11 -7 -18z m65 8 c-1 -8 -5 -17 -8 -21 -5 -4 -4 16 1 34 3 9 9 -1
7 -13z m121 -4 c0 -11 -5 -18 -9 -15 -4 3 -5 11 -1 19 7 21 12 19 10 -4z m707
11 c3 -5 -1 -9 -9 -9 -8 0 -12 4 -9 9 3 4 7 8 9 8 2 0 6 -4 9 -8z m-1514 -31
c125 -6 159 -9 168 -15 6 -3 13 -2 17 4 4 6 12 7 18 3 17 -11 25 -11 192 -18
82 -4 155 -11 161 -16 6 -5 15 -5 19 -1 5 4 5 1 1 -6 -4 -7 5 -25 22 -45 17
-17 41 -44 54 -59 14 -15 29 -24 33 -20 5 4 5 2 1 -5 -7 -13 80 -110 95 -105
6 1 8 -2 5 -7 -8 -12 54 -77 68 -73 6 2 8 0 3 -4 -10 -10 33 -55 46 -47 6 3 7
1 3 -5 -4 -7 5 -24 19 -38 l26 -26 -23 -26 c-25 -29 -26 -30 -148 -140 -46
-42 -91 -84 -100 -92 -8 -8 -37 -32 -63 -54 -26 -21 -44 -43 -40 -49 3 -6 1
-7 -6 -3 -7 4 -32 -10 -60 -33 -43 -36 -54 -41 -87 -36 -22 2 -73 7 -114 10
-41 3 -91 9 -110 12 -19 3 -41 6 -48 6 -13 0 -192 173 -230 222 -15 19 -18 39
-17 112 2 53 -2 94 -9 102 -8 11 -8 13 0 8 8 -4 12 3 11 21 0 42 13 261 19
317 4 28 7 67 7 87 1 23 5 34 12 29 5 -5 30 -9 55 -10z m766 -7 c1 -9 0 -13
-4 -10 -3 4 -7 14 -8 22 -1 9 0 13 4 10 3 -4 7 -14 8 -22z m139 17 c-9 -8 -36
-10 -30 -2 2 4 11 8 20 8 8 0 13 -3 10 -6z m101 -17 c1 -9 0 -13 -4 -10 -3 4
-7 14 -8 22 -1 9 0 13 4 10 3 -4 7 -14 8 -22z m140 14 c3 -4 -1 -5 -10 -4 -8
1 -18 5 -22 8 -3 4 1 5 10 4 8 -1 18 -5 22 -8z m224 6 c0 -8 -19 -13 -24 -6
-3 5 1 9 9 9 8 0 15 -2 15 -3z m75 -5 c2 -3 -8 -5 -25 -5 -16 0 -27 3 -25 6 5
8 42 6 50 -1z m122 -4 c0 -8 -4 -12 -9 -9 -5 3 -6 10 -3 15 9 13 12 11 12 -6z
m63 5 c0 -5 -5 -10 -11 -10 -5 0 -7 5 -4 10 3 6 8 10 11 10 2 0 4 -4 4 -10z
m70 4 c0 -8 -19 -13 -24 -6 -3 5 1 9 9 9 8 0 15 -2 15 -3z m667 -64 c2 -30 8
-59 14 -66 6 -7 6 -15 1 -18 -5 -3 -8 -18 -6 -33 8 -67 16 -218 18 -340 l3
-133 -89 -90 c-56 -56 -87 -94 -82 -101 5 -8 3 -9 -5 -4 -8 4 -25 -4 -44 -23
-18 -16 -39 -30 -47 -30 -8 0 -35 -2 -60 -5 -25 -3 -76 -9 -115 -12 -38 -4
-82 -9 -97 -11 -19 -3 -36 4 -60 26 -18 16 -36 30 -39 30 -4 0 -20 12 -36 28
-16 15 -62 56 -102 92 -132 117 -261 243 -261 255 0 6 22 35 49 62 27 28 47
54 44 57 -4 3 2 6 11 6 13 0 16 5 12 17 -4 10 -4 14 0 10 10 -10 65 44 57 56
-3 6 -2 7 4 4 12 -8 46 31 38 44 -4 5 -2 8 3 7 15 -5 83 72 75 85 -3 7 -3 9 2
5 4 -4 31 17 59 47 l51 56 155 5 c85 3 160 10 167 16 7 6 14 5 18 -2 3 -6 11
-8 16 -5 5 4 31 7 59 9 27 1 51 4 54 7 2 2 33 4 67 3 l63 0 3 -54z m-1057 46
c0 -3 -4 -8 -10 -11 -5 -3 -10 -1 -10 4 0 6 5 11 10 11 6 0 10 -2 10 -4z m176
-11 c-1 -8 -5 -17 -8 -21 -5 -4 -4 16 1 34 3 9 9 -1 7 -13z m289 5 c3 -6 -1
-7 -9 -4 -18 7 -21 14 -7 14 6 0 13 -4 16 -10z m-1112 -15 c-3 -9 -8 -14 -10
-11 -3 3 -2 9 2 15 9 16 15 13 8 -4z m61 -7 c-3 -4 -11 -5 -19 -1 -21 7 -19
12 4 10 11 0 18 -5 15 -9z m671 -18 c3 -5 -3 -7 -12 -6 -22 3 -66 -40 -57 -56
4 -6 3 -8 -3 -5 -14 9 -164 -152 -156 -167 6 -10 -36 21 -47 35 -39 50 -175
187 -181 183 -5 -3 -6 2 -3 10 5 13 40 15 230 15 123 -1 226 -5 229 -9z m-605
-35 c14 -19 14 -19 -2 -6 -10 7 -18 18 -18 24 0 6 1 8 3 6 1 -2 9 -13 17 -24z
m54 17 c2 -4 -5 -9 -17 -9 -17 -2 -19 0 -7 7 18 12 18 12 24 2z m781 -2 c3 -5
1 -10 -4 -10 -6 0 -11 5 -11 10 0 6 2 10 4 10 3 0 8 -4 11 -10z m-954 -17 c13
-16 12 -17 -3 -4 -17 13 -22 21 -14 21 2 0 10 -8 17 -17z m1754 -3 c3 -5 1
-10 -4 -10 -6 0 -11 5 -11 10 0 6 2 10 4 10 3 0 8 -4 11 -10z m-940 -48 c-3
-3 -11 0 -18 7 -9 10 -8 11 6 5 10 -3 15 -9 12 -12z m65 -32 c0 -5 -2 -10 -4
-10 -3 0 -8 5 -11 10 -3 6 -1 10 4 10 6 0 11 -4 11 -10z m-602 -25 c-3 -3 -9
2 -12 12 -6 14 -5 15 5 6 7 -7 10 -15 7 -18z m2 -49 c0 -2 -7 -7 -16 -10 -8
-3 -12 -2 -9 4 6 10 25 14 25 6z m450 -2 c0 -8 -19 -13 -24 -6 -3 5 1 9 9 9 8
0 15 -2 15 -3z m-539 -391 c13 -16 12 -17 -3 -4 -17 13 -22 21 -14 21 2 0 10
-8 17 -17z m344 -86 c4 5 5 3 2 -3 -4 -7 38 -54 100 -113 59 -56 103 -101 98
-102 -44 -5 -498 -3 -506 2 -9 5 109 119 132 127 5 2 9 10 9 18 0 8 4 14 10
14 5 0 31 21 56 46 l46 45 22 -20 c13 -12 26 -18 31 -14z m2505 -31 c0 -3 -4
-8 -10 -11 -5 -3 -10 -1 -10 4 0 6 5 11 10 11 6 0 10 -2 10 -4z m-5062 -41
c-3 -3 -9 2 -12 12 -6 14 -5 15 5 6 7 -7 10 -15 7 -18z m4692 -121 c0 -15 -48
-117 -88 -187 -82 -144 -202 -241 -338 -273 -51 -11 -200 -13 -239 -2 -11 4
-32 9 -47 12 -24 5 -26 9 -19 29 5 12 17 69 26 127 10 58 21 109 25 113 4 4
19 10 33 12 120 21 377 88 509 134 116 39 138 45 138 35z m-4270 -34 c16 -8
281 -83 340 -96 19 -4 40 -9 45 -10 6 -2 49 -11 97 -22 48 -10 90 -21 93 -24
4 -3 8 -19 10 -34 6 -51 15 -98 26 -147 8 -33 8 -52 1 -59 -19 -19 -211 -22
-281 -4 -163 42 -302 178 -386 379 l-15 38 27 -7 c16 -4 35 -10 43 -14z m2514
-66 c3 -8 2 -12 -4 -9 -6 3 -10 10 -10 16 0 14 7 11 14 -7z m763 -176 c-5 -29
-11 -54 -13 -56 -3 -5 -82 36 -88 46 -9 15 41 50 76 55 18 2 33 5 34 5 1 1 -3
-22 -9 -50z m-2319 15 l21 -21 -41 -22 c-22 -11 -41 -20 -43 -18 -1 2 -5 22
-9 45 -6 41 -6 42 22 40 16 -1 38 -12 50 -24z m742 -48 c224 -9 687 -5 890 9
64 5 116 -4 100 -16 -3 -2 -27 -22 -55 -45 -131 -106 -325 -237 -483 -327
l-83 -47 -57 32 c-127 72 -424 274 -474 322 -7 7 -28 23 -45 36 -53 37 -37 52
47 45 25 -2 97 -6 160 -9z m-425 -230 c98 -80 277 -214 372 -278 94 -63 97
-58 -47 -82 -148 -26 -302 -2 -403 62 -71 44 -197 194 -197 232 0 6 35 28 78
50 42 22 86 46 97 55 11 8 23 16 26 16 4 0 37 -25 74 -55z m1749 7 c44 -26 93
-54 109 -62 15 -7 27 -19 27 -25 0 -24 -79 -132 -131 -180 -125 -113 -280
-148 -484 -110 -115 22 -135 27 -134 34 0 3 59 44 130 91 70 47 188 133 261
192 73 58 135 107 137 107 2 1 40 -21 85 -47z m-2261 -242 l37 -70 -27 11
c-117 44 -233 93 -229 96 2 3 8 5 13 6 4 1 35 7 68 13 99 20 96 21 138 -56z
m2803 30 c50 0 27 -17 -77 -57 -61 -24 -113 -42 -115 -41 -1 2 13 30 32 64
l34 61 52 -13 c29 -8 62 -14 74 -14z"/>
</g>
</svg>
