<?xml version="1.0" encoding="UTF-8" standalone="no"?>
<!-- Created with Inkscape (http://www.inkscape.org/) -->

<svg
   xmlns:dc="http://purl.org/dc/elements/1.1/"
   xmlns:cc="http://creativecommons.org/ns#"
   xmlns:rdf="http://www.w3.org/1999/02/22-rdf-syntax-ns#"
   xmlns:svg="http://www.w3.org/2000/svg"
   xmlns="http://www.w3.org/2000/svg"
   xmlns:xlink="http://www.w3.org/1999/xlink"
   xmlns:sodipodi="http://sodipodi.sourceforge.net/DTD/sodipodi-0.dtd"
   xmlns:inkscape="http://www.inkscape.org/namespaces/inkscape"
   width="378.51175mm"
   height="72.248886mm"
   viewBox="0 0 1341.1834 255.99999"
   id="svg5177"
   version="1.1"
   inkscape:version="0.91 r"
   sodipodi:docname="logo.svg"
   inkscape:export-filename="/home/jayce/Playground/Mathics logos/rubik-capitalized.png"
   inkscape:export-xdpi="90"
   inkscape:export-ydpi="90">
  <defs
     id="defs5179">
    <linearGradient
       id="linearGradient4390"
       inkscape:collect="always">
      <stop
         id="stop4392"
         offset="0"
         style="stop-color:#787878;stop-opacity:1" />
      <stop
         id="stop4394"
         offset="1"
         style="stop-color:#000000;stop-opacity:1" />
    </linearGradient>
    <radialGradient
       inkscape:collect="always"
       xlink:href="#linearGradient4390"
       id="radialGradient6020-0-3-9-6-28-7"
       cx="1729.1877"
       cy="521.34827"
       fx="1729.1877"
       fy="521.34827"
       r="12.194446"
       gradientTransform="matrix(7.2671357,0,0,7.2493846,-12827.119,-3152.6383)"
       gradientUnits="userSpaceOnUse" />
  </defs>
  <sodipodi:namedview
     id="base"
     pagecolor="#ffffff"
     bordercolor="#666666"
     borderopacity="1.0"
     inkscape:pageopacity="0.0"
     inkscape:pageshadow="2"
     inkscape:zoom="0.5"
     inkscape:cx="658.56945"
     inkscape:cy="-39.64084"
     inkscape:document-units="px"
     inkscape:current-layer="layer1"
     showgrid="false"
     fit-margin-top="0"
     fit-margin-left="0"
     fit-margin-right="0"
     fit-margin-bottom="0"
     inkscape:window-width="1600"
     inkscape:window-height="841"
     inkscape:window-x="0"
     inkscape:window-y="28"
     inkscape:window-maximized="1"
     showguides="false" />
  <metadata
     id="metadata5182">
    <rdf:RDF>
      <cc:Work
         rdf:about="">
        <dc:format>image/svg+xml</dc:format>
        <dc:type
           rdf:resource="http://purl.org/dc/dcmitype/StillImage" />
        <dc:title></dc:title>
      </cc:Work>
    </rdf:RDF>
  </metadata>
  <g
     inkscape:label="Layer 1"
     inkscape:groupmode="layer"
     id="layer1"
     transform="translate(388.89181,-498.81626)">
    <path
       inkscape:connector-curvature="0"
       id="path5838-9-5-5-5-3-5-6-3-9"
       style="opacity:1;fill:none;fill-opacity:0.90196078;stroke:url(#radialGradient6020-0-3-9-6-28-7);stroke-width:10.49785042;stroke-linecap:square;stroke-linejoin:bevel;stroke-miterlimit:0;stroke-dasharray:none;stroke-dashoffset:0;stroke-opacity:1"
       d="m -261.39698,668.90569 c -374.65043,0 266.2002904,-308.52909 32.60947,-15.55572 -233.58976,292.97338 -75.61496,-400.48763 7.75267,-35.15593 83.36762,365.3318 -360.11721,-190.53284 -22.56933,-27.94486 337.548926,162.58787 -373.13454,162.91593 -35.58561,0.32753 337.547874,-162.58797 -105.60838,392.29249 -22.2418,26.96069 83.36763,-365.3317 242.543383,329.90544 8.95257,36.93206 -233.59082,-292.97327 405.73141,14.4357 31.08203,14.4357 z m -117.99584,-78.71551 c 14.03353,-43.19949 73.10283,-86.12499 118.51654,-86.12499 45.41265,0 104.483,42.9255 118.51653,86.12499 14.03352,43.19939 -8.52951,112.65432 -45.26988,139.35309 -36.74038,26.69876 -109.75398,26.69876 -146.49436,0 -36.74037,-26.69877 -59.30235,-96.1537 -45.26883,-139.35309 z" />
    <g
       transform="scale(1.0433439,0.95845674)"
       style="font-style:normal;font-variant:normal;font-weight:300;font-stretch:normal;font-size:27.5px;line-height:125%;font-family:Rubik;-inkscape-font-specification:'Rubik, Light';text-align:start;letter-spacing:0px;word-spacing:0px;writing-mode:lr-tb;text-anchor:start;fill:#000000;fill-opacity:1;stroke:none;stroke-width:1px;stroke-linecap:butt;stroke-linejoin:miter;stroke-opacity:1"
       id="text6463-8-3-92-4-4-6-0-38-7">
      <path
         d="m 28.880723,706.52658 q 6.3512,0 8.949418,-5.77382 l 55.139958,-108.54777 0,156.47046 q 0,2.88691 1.732146,4.61905 1.732145,1.73215 4.619054,1.73215 l 5.196431,0 q 2.88691,0 4.61906,-1.73215 2.02084,-1.73214 2.02084,-4.61905 l 0,-189.09253 q 0,-3.1756 -1.73215,-4.90774 -1.73215,-1.73215 -4.90775,-1.73215 l -6.928576,0 q -4.041673,0 -6.062509,3.75298 L 25.705124,684.29738 -39.827707,556.69601 q -1.732145,-3.75298 -6.062508,-3.75298 l -7.217273,0 q -2.886908,0 -4.907745,1.73215 -1.732145,1.73214 -1.732145,4.90774 l 0,189.09253 q 0,2.88691 1.732145,4.61905 2.020837,1.73215 4.907745,1.73215 l 5.196436,0 q 2.886909,0 4.619055,-1.73215 1.732145,-1.73214 1.732145,-4.61905 l 0,-156.47046 55.139959,108.54777 q 2.598217,5.77382 8.949417,5.77382 l 6.351199,0 z"
         id="path4369"
         inkscape:connector-curvature="0" />
      <path
         d="m 252.99051,735.10698 q -6.3512,9.5268 -18.76491,16.16669 -12.12501,6.63989 -32.33338,6.63989 -13.85716,0 -25.69348,-5.77382 -11.83633,-5.77382 -19.0536,-15.58931 -6.92858,-9.81549 -6.92858,-21.65181 0,-19.0536 15.30061,-31.17862 15.58931,-12.12502 41.86018,-15.58931 l 45.61316,-6.3512 0,-10.10418 q 0,-15.878 -9.81549,-24.25003 -9.5268,-8.66073 -29.44647,-8.66073 -14.72323,0 -24.25003,5.77382 -9.23811,5.77382 -11.83633,13.85716 -1.15476,3.46429 -2.88691,4.90775 -1.44345,1.15476 -4.04167,1.15476 l -4.04167,0 q -2.59822,0 -4.61906,-1.73214 -1.73214,-2.02084 -1.73214,-4.61906 0,-6.3512 5.77382,-14.72323 5.77381,-8.66073 17.89883,-15.01193 12.12502,-6.3512 29.73516,-6.3512 30.88993,0 43.88102,14.72324 12.99109,14.72323 12.99109,35.79767 l 0,96.13406 q 0,2.88691 -1.73215,4.61905 -1.73215,1.73215 -4.61905,1.73215 l -4.90775,0 q -2.88691,0 -4.61905,-1.73215 -1.73215,-1.73214 -1.73215,-4.61905 l 0,-13.56847 z m 0,-57.44949 -37.24112,5.19644 q -23.67266,3.1756 -35.79767,10.97025 -12.12502,7.79466 -12.12502,19.63098 0,13.27978 10.97025,20.49705 11.25895,7.21728 25.98218,7.21728 21.07444,0 34.64291,-13.85717 13.56847,-13.85716 13.56847,-39.83934 l 0,-9.81549 z"
         id="path4371"
         inkscape:connector-curvature="0" />
      <path
         d="m 343.14773,705.66051 q 0,16.16669 5.19644,24.53872 5.48512,8.08335 17.89883,8.08335 l 15.58931,0 q 2.88691,0 4.61905,1.73214 1.73215,1.73215 1.73215,4.61906 l 0,4.04167 q 0,2.88691 -1.73215,4.61905 -1.73214,1.73215 -4.61905,1.73215 l -17.03276,0 q -21.36313,0 -30.31255,-12.7024 -8.94941,-12.99109 -8.94941,-35.50898 l 0,-85.16381 -22.51789,0 q -2.88691,0 -4.61906,-1.73214 -1.73214,-1.73215 -1.73214,-4.61906 l 0,-4.04167 q 0,-2.88691 1.73214,-4.61905 1.73215,-1.73215 4.61906,-1.73215 l 22.51789,0 0,-48.50007 q 0,-2.88691 1.73214,-4.61905 1.73215,-1.73215 4.61905,-1.73215 l 4.90775,0 q 2.88691,0 4.61905,1.73215 1.73215,1.73214 1.73215,4.61905 l 0,48.50007 35.79767,0 q 2.88691,0 4.61905,1.73215 1.73215,1.73214 1.73215,4.61905 l 0,4.04167 q 0,2.88691 -1.73215,4.61906 -1.73214,1.73214 -4.61905,1.73214 l -35.79767,0 0,84.00905 z"
         id="path4373"
         inkscape:connector-curvature="0" />
      <path
         d="m 435.92584,624.82706 q 8.66073,-11.25894 19.63098,-17.03276 11.25895,-5.77382 28.86909,-5.77382 28.29171,0 43.59232,18.18753 15.30062,17.89883 15.30062,46.47923 l 0,81.98821 q 0,2.88691 -1.73215,4.61905 -1.73214,1.73215 -4.61905,1.73215 l -4.90775,0 q -2.8869,0 -4.61905,-1.73215 -1.73214,-1.73214 -1.73214,-4.61905 l 0,-80.54476 q 0,-23.38396 -11.54764,-36.37505 -11.25894,-12.99109 -32.62207,-12.99109 -20.78574,0 -33.19945,13.27978 -12.41371,12.99109 -12.41371,36.08636 l 0,80.54476 q 0,2.88691 -1.73214,4.61905 -1.73215,1.73215 -4.61906,1.73215 l -4.90774,0 q -2.88691,0 -4.61906,-1.73215 -1.73214,-1.73214 -1.73214,-4.61905 l 0,-192.26813 q 0,-2.88691 1.73214,-4.61905 1.73215,-1.73215 4.61906,-1.73215 l 4.90774,0 q 2.88691,0 4.61906,1.73215 1.73214,1.73214 1.73214,4.61905 l 0,68.41974 z"
         id="path4375"
         inkscape:connector-curvature="0" />
      <path
         d="m 609.65907,567.66627 q 0,2.8869 -2.02084,4.61905 -1.73214,1.73215 -4.61905,1.73215 l -10.97025,0 q -2.88691,0 -4.61906,-1.73215 -1.73214,-1.73215 -1.73214,-4.61905 l 0,-10.97026 q 0,-2.88691 1.73214,-4.61905 1.73215,-2.02084 4.61906,-2.02084 l 10.97025,0 q 2.88691,0 4.61905,2.02084 2.02084,1.73214 2.02084,4.61905 l 0,10.97026 z m -3.1756,181.00918 q 0,2.88691 -1.73215,4.61905 -1.73214,1.73215 -4.61905,1.73215 l -4.90774,0 q -2.88691,0 -4.61906,-1.73215 -1.73214,-1.73214 -1.73214,-4.61905 l 0,-137.41686 q 0,-2.88691 1.73214,-4.61905 1.73215,-1.73215 4.61906,-1.73215 l 4.90774,0 q 2.88691,0 4.61905,1.73215 1.73215,1.73214 1.73215,4.61905 l 0,137.41686 z"
         id="path4377"
         inkscape:connector-curvature="0" />
      <path
         d="m 663.83375,690.0712 q 0.86607,25.98218 12.99109,38.68458 12.41371,12.41371 33.19945,12.41371 15.878,0 26.27087,-6.63989 10.39287,-6.92858 16.16669,-22.80658 1.44346,-3.46429 2.59822,-4.61906 1.44345,-1.44345 4.33036,-1.44345 l 4.04168,0 q 2.59821,0 4.61905,2.02083 2.02084,1.73215 1.73214,4.33037 -0.57738,11.25894 -7.21727,21.9405 -6.63989,10.39288 -20.20836,17.32146 -13.27978,6.63989 -32.33338,6.63989 -30.02385,0 -46.47923,-17.32145 -16.45538,-17.61015 -17.32145,-49.07746 l -0.28869,-11.54763 0.28869,-11.54764 q 0.86607,-31.4673 17.32145,-48.78876 16.45538,-17.61014 46.47923,-17.61014 19.0536,0 32.33338,6.92858 13.56847,6.63989 20.20836,17.32146 6.63989,10.39287 7.21727,21.65181 0.2887,2.59822 -1.73214,4.61906 -2.02084,1.73214 -4.61905,1.73214 l -4.04168,0 q -2.88691,0 -4.33036,-1.15476 -1.15476,-1.44346 -2.59822,-4.90775 -5.77382,-15.878 -16.16669,-22.51789 -10.39287,-6.92858 -26.27087,-6.92858 -20.78574,0 -33.19945,12.7024 -12.12502,12.41371 -12.99109,38.39589 l -0.28869,10.10418 0.28869,10.10418 z"
         id="path4379"
         inkscape:connector-curvature="0" />
      <path
         d="m 846.62012,685.45215 q -25.69349,-5.77382 -35.22029,-15.878 -9.23811,-10.10418 -9.23811,-25.69349 0,-10.68156 5.77382,-20.20836 6.06251,-9.5268 17.61014,-15.58931 11.83633,-6.06251 28.29171,-6.06251 17.32145,0 29.15778,6.06251 12.12501,5.77382 17.89883,13.56847 6.06251,7.79465 6.06251,12.7024 0,2.59822 -2.02084,4.33036 -1.73214,1.44346 -4.33036,1.44346 l -4.33036,0 q -4.04168,0 -6.3512,-3.75298 -5.77382,-8.66073 -13.27978,-12.99109 -7.21727,-4.61906 -22.80658,-4.61906 -16.74407,0 -25.4048,6.92858 -8.66073,6.92858 -8.66073,18.18753 0,6.92858 3.46429,11.54763 3.46429,4.61906 12.99109,8.66073 9.5268,3.75298 27.71433,7.79465 26.84825,6.06251 37.8185,16.16669 10.97026,10.10419 10.97026,26.84826 0,11.83632 -6.63989,21.65181 -6.63989,9.81549 -19.63098,15.58931 -12.99109,5.77382 -31.17862,5.77382 -18.76491,0 -31.756,-6.3512 -12.70239,-6.3512 -19.34228,-14.43455 -6.3512,-8.08334 -6.3512,-12.99109 0,-2.59821 2.02083,-4.04167 2.02084,-1.73214 4.33037,-1.73214 l 4.33036,0 q 2.02084,0 3.1756,0.86607 1.44345,0.57738 3.1756,2.88691 6.3512,8.94942 15.30062,14.14585 9.2381,4.90775 25.1161,4.90775 17.89884,0 28.86909,-6.63989 10.97025,-6.92858 10.97025,-19.63098 0,-7.79466 -4.61905,-12.7024 -4.33036,-4.90775 -14.43454,-8.37204 -9.81549,-3.75298 -29.44647,-8.37203 z"
         id="path4381"
         inkscape:connector-curvature="0" />
    </g>
  </g>
</svg>
